<svg xmlns="http://www.w3.org/2000/svg" viewBox="0 0 1920.56 211.9"><defs><style>.cls-1,.cls-2,.cls-3,.cls-4{fill:none;stroke-miterlimit:10;stroke-width:3px;}.cls-1{stroke:#aa6eab;}.cls-2{stroke:#fafae6;}.cls-3{stroke:#e4e3b5;}.cls-4{stroke:#d6b2cf;}</style></defs><title>graph</title><g id="Layer_2" data-name="Layer 2"><g id="Graphs"><path class="cls-1" d="M.17,208.07c1509.19,0,1189.27-184,1510.83-184,257.25,0,257.68,186.33,409.17,186.33"/><path class="cls-2" d="M.38,173.45s127.19-22.57,251.53-22.57,347.28,22.57,508.78,22.57,87.18-75.82,142.92-75.82,81.46,90.71,510.2,93.42,506.36-17.9,506.36-17.9"/><path class="cls-3" d="M.17,198.76s67.38-7.71,127.4-7.71S562,199.17,687.8,199.17C893.6,199.17,853.58,1.5,913.61,1.5s-54.31,205.79,606,205.79c134.34,0,400.6-7.37,400.6-7.37"/><path class="cls-4" d="M.17,188.28c786,0,721.93-172.34,839.12-172.34s108.62,163.37,197.23,163.37S1270.9,120.64,1431,120.64s303.42,67.64,489.21,67.64"/></g></g></svg>