<svg xmlns="http://www.w3.org/2000/svg" viewBox="0 0 1921.94 172.02"><defs><style>.cls-1{fill:#d6b2cf;}.cls-2,.cls-3{fill:#aa6eab;}.cls-3{stroke:#d6b2cf;stroke-miterlimit:10;stroke-width:4px;}</style></defs><title>Asset 3</title><g id="Layer_2" data-name="Layer 2"><g id="Graphs"><path class="cls-1" d="M.49,42.77S56.59,51.7,80,51.7s57.49-5.86,70.6-5.86S184.4,55.61,184.4,58.4s-8.51,7.25-8.51,11.3,32.79,4.88,38.09,4.88-3.91,7.26,1.67,7.26,15.63-4.75,15.63.56-3.35,7.25,3.35,7.25,10.05,6.7,24,6.7,33.77,13.39,79.82,13.39S529.61,97.47,541.61,97.47s4.18,11.72,17.86,11.72,1.67-14,10.6-14,81.21-3.9,87.07-3.9-1.39,8.93,6.14,8.93,8.65-11.72,16.19-11.72,322.6-29,322.6-14.52-7.53,29.59,5,29.59,12.27-21.21,12.27-31.82c22.33,0,76.47-5.58,86.52-5.58s-15.91,43.26,2.79,42.42,5.3-43,15.62-43,97.12-20.65,97.12-7.25-3.07,50.79,7.81,50.79.28-53.58,15.07-53.58S1349.23,16,1349.23,32.72s-4.18,83.72,12.84,83.72-7.25-82.6,6.7-82.6S1465.61,16,1479.84,16s5.3,2.79,17.86,2.79S1627.47-5.51,1627.47,4.54s-14.24,20.09-14.24,29.3,15.63,1.11,15.63,7.81-6.7,5.3-6.7,15.07,7.26,6.7,15.07,6.7,13.4,63.63,21.77,63.63-.56-29-.56-45.77,16.19-13.4,16.19-27.35-13.4-11.72-13.4-21.77S1649,11,1662.91,11s95.16,3.35,111.63,3.35,4.46,88.19,4.46,99.35,5.58,10,15.07,10,2.23-99.91,21.77-99.91S1918,40,1918,40l1.11,128.93H.77Z"/><path class="cls-2" d="M.3,42.54a3.25,3.25,0,0,1,.76,0l.59.08,1.11.18L5,43.16l4.44.66,8.9,1.29c5.93.83,11.87,1.64,17.82,2.39S48,49,54,49.56s11.93,1.15,17.9,1.49c3,.18,6,.26,9,.26s6-.13,9-.28c6-.32,11.94-.85,17.9-1.45,11.93-1.17,23.8-2.79,35.77-3.82a69.68,69.68,0,0,1,9-.3A49.71,49.71,0,0,1,161.46,47a83,83,0,0,1,16.91,6.32,38,38,0,0,1,3.94,2.29A11.77,11.77,0,0,1,184.13,57a2.34,2.34,0,0,1,.72,1.2,2.49,2.49,0,0,1-.31,1.36,9,9,0,0,1-1.46,1.88c-.53.56-1.09,1.07-1.64,1.58-1.1,1-2.21,2-3.18,3.1a6.15,6.15,0,0,0-1.87,3.57c0,.11.14.33.41.51a4.42,4.42,0,0,0,.89.48,15.13,15.13,0,0,0,2.07.65,67.63,67.63,0,0,0,8.81,1.39c5.94.62,11.92.93,17.9,1.15L211,74l2.24,0c.38,0,.72,0,1.15,0a2.34,2.34,0,0,1,1.36.44,1.36,1.36,0,0,1,.47.75,1.82,1.82,0,0,1,0,.77,5.12,5.12,0,0,1-.39,1.2c-.32.72-.7,1.37-1,2s-.57,1.39-.42,1.68c0,.12.23.23.53.3a4.47,4.47,0,0,0,1,.06c2.88-.12,5.79-1,8.76-1.56a14.36,14.36,0,0,1,4.66-.3,4,4,0,0,1,1.24.44,2.6,2.6,0,0,1,1,1,3.34,3.34,0,0,1,.31,1.31c0,.43,0,.8,0,1.19a17.22,17.22,0,0,1-.35,2.3c-.15.74-.37,1.49-.43,2.12a.92.92,0,0,0,.13.67,1.09,1.09,0,0,1,.1.11l.16.09a1.47,1.47,0,0,0,.42.15,9.14,9.14,0,0,0,2.08.23,18.63,18.63,0,0,1,2.31.15,11.55,11.55,0,0,1,2.28.58,34.2,34.2,0,0,1,4.15,1.92,33.54,33.54,0,0,0,8.22,3.2l1.07.24,1.09.17a20.46,20.46,0,0,0,2.19.27c1.48.17,2.91.09,4.46.21a36.41,36.41,0,0,1,4.55.52c1.48.32,3,.6,4.42,1,2.93.74,5.79,1.62,8.67,2.46a205.73,205.73,0,0,0,35,7.7c2.95.42,5.94.63,8.91.92s6,.34,9,.52,6,.13,9,.13l9-.13c12-.36,23.94-.93,35.91-1.61,47.86-2.7,95.65-6.55,143.49-9.92l9-.58c1.49-.1,3-.13,4.53-.2a13.05,13.05,0,0,1,4.74.6,7.06,7.06,0,0,1,3.79,3.25c.81,1.42,1.26,2.86,1.92,4.08a6.28,6.28,0,0,0,2.73,2.78,11,11,0,0,0,4,.93,15,15,0,0,0,4.2-.27,3.87,3.87,0,0,0,2.85-2.1,8.83,8.83,0,0,0,.39-4c0-.74-.11-1.49-.13-2.27a8.52,8.52,0,0,1,.22-2.51,3.55,3.55,0,0,1,1.82-2.26,6.08,6.08,0,0,1,2.59-.52c1.48,0,3,0,4.47-.11l9-.37c23.95-1.08,47.87-2.44,71.85-3.46l1.15,0h.57c.22,0,.44,0,.68,0a3.57,3.57,0,0,1,1.47.48,2.78,2.78,0,0,1,1.08,1.33,6.17,6.17,0,0,1,.27,2.64c0,.78-.11,1.5-.09,2.17,0,1.4.45,2,1.72,2.18a5.89,5.89,0,0,0,3.71-.64c2.3-1.26,3.86-3.88,5.74-6.28a14.7,14.7,0,0,1,3.39-3.38,8.1,8.1,0,0,1,2.33-1.07,4.59,4.59,0,0,1,1.27-.23l.65-.06c.21,0,.33,0,.52,0,11.89-.85,23.88-1.94,35.81-2.91q35.84-3,71.7-5.8t71.74-5.19c23.93-1.57,47.87-3,71.85-4,12-.48,24-.87,36-.93,6,0,12,0,18,.29,3,.15,6,.34,9.06.71a41.41,41.41,0,0,1,4.58.79,14.34,14.34,0,0,1,2.36.76,5.36,5.36,0,0,1,1.26.73,3.66,3.66,0,0,1,.66.65,2.53,2.53,0,0,1,.44,1.13,1.64,1.64,0,0,1,0,.45v.87c0,.39,0,.77,0,1.16,0,.76-.09,1.53-.15,2.29-.12,1.53-.31,3-.51,4.53-.4,3-.92,6-1.25,8.88a33.09,33.09,0,0,0-.25,4.29A9,9,0,0,0,1002,100a3.94,3.94,0,0,0,2.62,2,10.06,10.06,0,0,0,3.87.18,8.23,8.23,0,0,0,5.92-4.56,26.3,26.3,0,0,0,2.59-8.08,101.65,101.65,0,0,0,1-17.69V70.4h1.4c8.72-.08,17.5-.63,26.25-1.21s17.52-1.3,26.28-2,17.52-1.46,26.32-2.07c2.2-.15,4.39-.3,6.65-.35l.85,0a3.64,3.64,0,0,1,.54,0,2.42,2.42,0,0,1,.63.1,3.42,3.42,0,0,1,2.22,1.68,5.49,5.49,0,0,1,.62,2.16,12,12,0,0,1,0,1.89,39.62,39.62,0,0,1-1.26,6.74c-.55,2.16-1.16,4.28-1.76,6.4a116.69,116.69,0,0,0-3.09,12.63,23.44,23.44,0,0,0-.32,6.15,7.12,7.12,0,0,0,.73,2.6,3.53,3.53,0,0,0,1.65,1.57,8.24,8.24,0,0,0,5.33,0,7.53,7.53,0,0,0,4.09-3.51,18.6,18.6,0,0,0,2-5.71,47.14,47.14,0,0,0,.79-6.34c.28-4.3.22-8.68.32-13.12a58.15,58.15,0,0,1,.49-6.76,15.69,15.69,0,0,1,.9-3.55,7.36,7.36,0,0,1,1-1.82,4.71,4.71,0,0,1,1.94-1.45,4.53,4.53,0,0,1,1.21-.29l.56,0h.35c.49,0,1-.07,1.54-.13,1.06-.12,2.13-.27,3.21-.43,2.15-.33,4.31-.7,6.47-1.07l13-2.33c8.65-1.57,17.32-3.11,26-4.46s17.46-2.56,26.33-3.15a75,75,0,0,1,13.48.1,24.89,24.89,0,0,1,3.49.72,8.06,8.06,0,0,1,3.57,2A4.39,4.39,0,0,1,1223,57.6c0,.21,0,.43.07.65a3.93,3.93,0,0,1,0,.47v.83l-.06,3.32c-.23,8.8-.56,17.56-.07,26.23a60.68,60.68,0,0,0,1.82,12.65c.15.5.3,1,.48,1.45a13.11,13.11,0,0,0,.58,1.37,6.84,6.84,0,0,0,1.53,2.15,2.82,2.82,0,0,0,1.88.79,1.23,1.23,0,0,0,.69-.19,2,2,0,0,0,.68-.67,8.61,8.61,0,0,0,1.1-2.5,27.76,27.76,0,0,0,.67-3c.34-2.07.54-4.23.69-6.39.3-4.33.41-8.72.6-13.13s.42-8.84,1-13.31a41.89,41.89,0,0,1,1.46-6.72,17.92,17.92,0,0,1,1.44-3.34,9.65,9.65,0,0,1,2.61-3,7.06,7.06,0,0,1,4.08-1.32,16.16,16.16,0,0,0,3-.35c2.06-.38,4.16-.94,6.25-1.51,4.19-1.18,8.36-2.51,12.53-3.88,16.66-5.48,33.23-11.47,50.22-16.35,4.25-1.22,8.53-2.34,12.89-3.29,2.18-.46,4.37-.88,6.61-1.2a40.72,40.72,0,0,1,6.87-.48,15.46,15.46,0,0,1,3.67.47,6.61,6.61,0,0,1,3.76,2.32,5.4,5.4,0,0,1,.62,1.13A5.45,5.45,0,0,1,1351,32a14.66,14.66,0,0,1,.06,1.89l0,3.32-.28,13.18c-.14,8.77-.17,17.53.2,26.26.18,4.37.46,8.72.92,13a99.54,99.54,0,0,0,2.08,12.76,40.77,40.77,0,0,0,1.92,6,14,14,0,0,0,3.1,4.84,4.89,4.89,0,0,0,2.06,1.19l.56.11.57,0a2.71,2.71,0,0,0,.94-.18c1.1-.38,2-2.09,2.52-4a31,31,0,0,0,.87-6.14c.12-2.12.12-4.27.07-6.43-.12-4.33-.45-8.68-.85-13-.8-8.72-1.9-17.44-2.68-26.25-.37-4.41-.69-8.84-.64-13.36a36.14,36.14,0,0,1,.65-6.93,12,12,0,0,1,1.35-3.69,6.26,6.26,0,0,1,1.62-1.79,5,5,0,0,1,2.54-.85l3.23-.2c1.06-.1,2.14-.25,3.21-.37,2.15-.22,4.32-.6,6.48-.9q6.48-1,13-2.14c8.64-1.51,17.28-3.1,25.93-4.7l26-4.75c8.68-1.52,17.32-3.09,26.14-4.24l3.32-.39c1.12-.13,2.31-.16,3.45-.24a49.82,49.82,0,0,1,6.87.25,11.43,11.43,0,0,1,3.88,1.09c.65.38,1,.62,1.3.75a2.74,2.74,0,0,0,.51.18,4.41,4.41,0,0,0,.62.14,33.6,33.6,0,0,0,6.07.31c2-.13,4.24-.43,6.38-.73s4.33-.63,6.49-1l13-2.13c17.33-2.9,34.67-5.9,52.1-8.49,8.71-1.29,17.44-2.51,26.24-3.42,4.41-.44,8.82-.82,13.31-1a58.52,58.52,0,0,1,6.85.16,16.25,16.25,0,0,1,3.74.74,5,5,0,0,1,2.32,1.55,3.27,3.27,0,0,1,.72,2.05l-.07,1a17.9,17.9,0,0,1-2.16,7.06,47.36,47.36,0,0,1-3.62,5.86c-2.54,3.66-5.31,7.08-7.06,10.69a11.26,11.26,0,0,0-1.27,5.22,2,2,0,0,0,.64,1.42,4.38,4.38,0,0,0,2,.67c1.83.25,4,0,6.38.12a13.25,13.25,0,0,1,1.91.17,7,7,0,0,1,2.24.71,4.38,4.38,0,0,1,2.06,2.25,3.91,3.91,0,0,1,.23.71,3,3,0,0,1,.11.69c0,.21,0,.45,0,.64l0,.51a8.51,8.51,0,0,1-1.2,4.12,15,15,0,0,1-2.44,2.91,12.7,12.7,0,0,0-1.8,2.14,8.56,8.56,0,0,0-.93,2.4,13.78,13.78,0,0,0,0,5.54c.5,1.56,1,2.07,2.87,2.3a36.83,36.83,0,0,0,6.16-.22c1.12-.09,2.28-.15,3.45-.16a5.07,5.07,0,0,1,.8.06,4.12,4.12,0,0,1,.9.28,4.7,4.7,0,0,1,1.24.84,8.38,8.38,0,0,1,1.41,1.73,31.1,31.1,0,0,1,2.79,6.55c.69,2.16,1.29,4.32,1.84,6.47,2.18,8.63,3.86,17.26,5.79,25.8,1,4.27,2,8.52,3.18,12.65a55.7,55.7,0,0,0,2.09,6,15.19,15.19,0,0,0,1.33,2.49,3.41,3.41,0,0,0,.64.71l.05,0s-.06,0-.1,0,0,0,0,0h.12s0,0,.06,0,.06,0,.1-.06.09-.14.16-.18.13-.24.21-.36a8.81,8.81,0,0,0,.53-2.5,36.86,36.86,0,0,0-.1-6.19c-.37-4.26-1-8.59-1.68-12.93s-1.33-8.72-1.8-13.16c-.23-2.23-.41-4.47-.47-6.76a24.57,24.57,0,0,1,.71-7.19,16.4,16.4,0,0,1,3.61-6.64,33.23,33.23,0,0,1,5.36-4.58,23.13,23.13,0,0,0,4.47-3.95,9.27,9.27,0,0,0,1.91-4.89,15.16,15.16,0,0,0,0-2.86,12.19,12.19,0,0,0-.51-2.74,9.79,9.79,0,0,0-2.89-4.5c-1.38-1.31-3.19-2.41-5.08-3.89a15.59,15.59,0,0,1-2.75-2.71,10.11,10.11,0,0,1-1.8-3.82,19,19,0,0,1-.36-3.61,15.53,15.53,0,0,0-.53-2.84,48.38,48.38,0,0,0-2.16-5.9c-.42-1-.86-2.05-1.26-3.16a15.57,15.57,0,0,1-1-3.74,6.84,6.84,0,0,1,.15-2.46,5.19,5.19,0,0,1,1.5-2.49,7.89,7.89,0,0,1,4.22-1.8,21.47,21.47,0,0,1,3.66-.22l3.33,0,6.62.16,13.19.39L1739.37,11c8.79.29,17.57.57,26.34.78,2.19,0,4.39.1,6.56.11l1.63,0h.41c.12,0,.27,0,.51,0a6.08,6.08,0,0,1,1.27.18,7.49,7.49,0,0,1,4,2.59,18.45,18.45,0,0,1,3.21,6.84,50.13,50.13,0,0,1,1.34,6.78,124.48,124.48,0,0,1,1,13.42c.11,4.45.07,8.88,0,13.31-.24,8.85-.79,17.66-1.46,26.45s-1.5,17.58-2.23,26.29c-.16,2.16-.39,4.41-.34,6.34a10.94,10.94,0,0,0,1,5.14,2.79,2.79,0,0,0,1.33,1.23,7.4,7.4,0,0,0,2.37.58,55.5,55.5,0,0,0,6.28.13h1.25c.07,0,.44,0,.25,0a.89.89,0,0,0-.34.07.4.4,0,0,0-.2.11s0,0,0-.07a8.23,8.23,0,0,0,.9-2.19,46.2,46.2,0,0,0,1.21-6.11c.59-4.24,1-8.6,1.28-12.95l1.74-26.31c.64-8.8,1.38-17.62,2.76-26.45a93.38,93.38,0,0,1,2.93-13.23,33.59,33.59,0,0,1,2.73-6.58,16.44,16.44,0,0,1,2.26-3.18,9.45,9.45,0,0,1,3.63-2.55,7.92,7.92,0,0,1,2.36-.52l.59,0,.43,0,.85,0c1.15.05,2.3.08,3.43.15,2.22.21,4.47.37,6.67.63s4.41.5,6.59.8l6.57.9c8.73,1.27,17.43,2.68,26.12,4.14q26,4.44,52,9.47l2.16.41,0,2.21,1.23,128.93,0,2.85h-2.85l-479.58.29-479.58-.33L480.35,171,.77,169.68H0v-.76ZM.69,43l.85,125.91-.77-.77,479.58-1.28,479.58-.73,479.58-.34,479.58.3-2.82,2.84-1-128.93,2.19,2.63q-25.85-5-51.82-9.54c-8.65-1.47-17.31-2.89-26-4.16l-6.5-.91c-2.17-.29-4.33-.53-6.49-.8s-4.31-.41-6.46-.62l-3.16-.15-.79,0-.4,0-.23,0a2.75,2.75,0,0,0-.84.18c-1.11.38-2.31,1.77-3.23,3.43a29.16,29.16,0,0,0-2.32,5.58,90.26,90.26,0,0,0-2.77,12.49c-1.35,8.54-2.1,17.27-2.75,26l-1.79,26.32c-.35,4.41-.72,8.82-1.35,13.29a48.32,48.32,0,0,1-1.37,6.81,12,12,0,0,1-1.73,3.81,5.75,5.75,0,0,1-1.1,1.12,7.47,7.47,0,0,1-.93.49,4.21,4.21,0,0,1-1.14.25,4.56,4.56,0,0,1-.57,0h-1.22a60.52,60.52,0,0,1-6.9-.17,12.19,12.19,0,0,1-4-1.06,7.76,7.76,0,0,1-3.44-3.17,11.63,11.63,0,0,1-1.38-3.94c-.11-.63-.16-1.24-.24-1.86s0-1.21-.07-1.81c0-2.47.2-4.6.36-6.83.75-8.8,1.61-17.52,2.28-26.27s1.25-17.48,1.5-26.2c.12-4.37.17-8.73.06-13.06a119.2,119.2,0,0,0-.89-12.89,46.31,46.31,0,0,0-1.2-6.14,14,14,0,0,0-2.26-5.05,2.69,2.69,0,0,0-1.4-1,4.58,4.58,0,0,0-.67-.07h-.42l-1.66,0c-2.23,0-4.42-.09-6.63-.13-8.81-.22-17.59-.52-26.39-.81L1686.5,13.9l-13.17-.41-6.57-.17-3.26,0a17.73,17.73,0,0,0-2.92.15,3.89,3.89,0,0,0-1.8.62c-.09.11-.14.12-.17.29a2.18,2.18,0,0,0,0,.81,11.51,11.51,0,0,0,.7,2.63c.35,1,.76,1.95,1.18,3a52.43,52.43,0,0,1,2.35,6.48,19.36,19.36,0,0,1,.66,3.64,17,17,0,0,0,.25,2.94,5.61,5.61,0,0,0,1,2.1,11,11,0,0,0,2,1.89c1.56,1.24,3.53,2.44,5.36,4.15a14.61,14.61,0,0,1,4.13,6.48,17.59,17.59,0,0,1,.69,3.73,19.3,19.3,0,0,1,0,3.72,13.88,13.88,0,0,1-2.86,7.21,27.09,27.09,0,0,1-5.36,4.79,30.17,30.17,0,0,0-4.67,3.94,12,12,0,0,0-2.64,4.83,20,20,0,0,0-.55,5.88c0,2.11.22,4.25.44,6.4.45,4.3,1.1,8.62,1.75,13s1.32,8.72,1.7,13.22a40.46,40.46,0,0,1,.08,7,12.63,12.63,0,0,1-.91,3.91c-.19.36-.37.72-.6,1.07a6.62,6.62,0,0,1-1,1,4.38,4.38,0,0,1-1.3.77,5.13,5.13,0,0,1-.72.25l-.7.1a3.76,3.76,0,0,1-.77,0,3.67,3.67,0,0,1-.91-.17,4.83,4.83,0,0,1-1.4-.72,7.71,7.71,0,0,1-1.59-1.7,19.23,19.23,0,0,1-1.79-3.3,58.07,58.07,0,0,1-2.26-6.48c-1.26-4.31-2.27-8.63-3.24-12.93-1.93-8.62-3.6-17.25-5.72-25.68-.54-2.11-1.11-4.19-1.76-6.22a27.67,27.67,0,0,0-2.32-5.57,4.11,4.11,0,0,0-.65-.83c-.08-.09-.13-.1-.1-.09s0,0,.11,0,.2,0,0,0c-1,0-2.06.06-3.14.15a39.48,39.48,0,0,1-7,.19,7.86,7.86,0,0,1-4.16-1.6,7.57,7.57,0,0,1-2.38-3.92,19.56,19.56,0,0,1-.33-2c0-.62-.08-1.25-.08-1.87s0-1.22.09-1.84.15-1.25.3-1.88a12.67,12.67,0,0,1,1.47-3.71,15.7,15.7,0,0,1,2.41-2.92c1.66-1.64,2.36-2.52,2.41-4.24l0-.31c0-.08,0-.12,0-.18s0-.11,0-.13,0-.07,0-.07,0,0-.13-.11a6,6,0,0,0-2.26-.37,65,65,0,0,1-6.8-.17,8.36,8.36,0,0,1-4.11-1.56,5.91,5.91,0,0,1-1.6-2.05,7.34,7.34,0,0,1-.42-1.16c-.07-.37-.16-.76-.19-1.12a15.2,15.2,0,0,1,1.67-7.48c2.12-4.3,5-7.74,7.43-11.29a46.49,46.49,0,0,0,3.33-5.34,13.92,13.92,0,0,0,1.71-5.45l.07-.66a.9.9,0,0,0,.17.53c.16.15-.09-.08-.43-.18a12.29,12.29,0,0,0-2.72-.52,55.12,55.12,0,0,0-6.33-.14c-4.3.12-8.65.49-13,.92-8.7.89-17.39,2.08-26.07,3.35-17.36,2.57-34.68,5.53-52,8.41l-13,2.12c-2.18.33-4.36.67-6.56,1s-4.37.6-6.72.75q-.44,0-.93,0h-.85c-.57,0-1.13,0-1.71,0a24.52,24.52,0,0,1-3.58-.36,8.68,8.68,0,0,1-1-.24,7,7,0,0,1-1-.38,15.74,15.74,0,0,1-1.56-.88,7.69,7.69,0,0,0-2.45-.63,45.14,45.14,0,0,0-6.3-.23c-1,.08-2.06.1-3.13.21l-3.22.38c-8.62,1.11-17.29,2.66-25.93,4.17L1421,27.48c-8.65,1.59-17.31,3.17-26,4.67-4.34.75-8.69,1.47-13.06,2.13-2.2.31-4.36.68-6.59.91-1.11.13-2.2.28-3.34.38l-3.35.2a1.05,1.05,0,0,0-.55.17,2.23,2.23,0,0,0-.55.65,8.32,8.32,0,0,0-.88,2.49,32.42,32.42,0,0,0-.57,6.18c-.06,4.27.25,8.62.61,13,.75,8.71,1.84,17.44,2.64,26.23.39,4.4.73,8.82.84,13.29,0,2.23,0,4.48-.09,6.74a34.9,34.9,0,0,1-1,6.9,14.17,14.17,0,0,1-1.45,3.52,6.91,6.91,0,0,1-3.29,2.94,6.49,6.49,0,0,1-2.27.44c-.37,0-.72,0-1.07-.05s-.71-.13-1.06-.21a8.86,8.86,0,0,1-3.61-2,17.64,17.64,0,0,1-4-6.15,44.43,44.43,0,0,1-2.09-6.55A101.12,101.12,0,0,1,1348.16,90c-.46-4.42-.74-8.84-.92-13.27-.35-8.84-.32-17.66-.16-26.47l.3-13.19,0-3.28a11.74,11.74,0,0,0,0-1.4c0-.17-.08-.25-.09-.39s-.1-.2-.16-.31a3.34,3.34,0,0,0-1.79-1,12.72,12.72,0,0,0-2.86-.35,37.46,37.46,0,0,0-6.27.44c-2.12.3-4.24.7-6.36,1.15-4.24.91-8.46,2-12.67,3.21C1300.38,40,1283.84,46,1267.1,51.44c-4.19,1.37-8.39,2.71-12.68,3.9-2.14.59-4.3,1.16-6.55,1.58a21,21,0,0,1-3.58.4,3.57,3.57,0,0,0-2.09.67,9.22,9.22,0,0,0-2.8,4.65,36.67,36.67,0,0,0-1.34,6.15c-.61,4.24-.84,8.6-1,13s-.31,8.78-.62,13.22c-.16,2.22-.36,4.45-.74,6.71a31,31,0,0,1-.77,3.42,11.7,11.7,0,0,1-1.59,3.48,5.46,5.46,0,0,1-1.67,1.6,4.65,4.65,0,0,1-2.45.66,6.2,6.2,0,0,1-4.07-1.64,9.94,9.94,0,0,1-2.29-3.17,14.17,14.17,0,0,1-.71-1.67c-.23-.56-.39-1.12-.56-1.68a62.8,62.8,0,0,1-1.93-13.4c-.49-8.89-.14-17.73.1-26.5l.06-3.27v-.81a3.13,3.13,0,0,0,0-.35,1.1,1.1,0,0,1,0-.18,1.16,1.16,0,0,0-.33-.61,5,5,0,0,0-2.16-1.12,19.25,19.25,0,0,0-3-.61,71.6,71.6,0,0,0-12.86-.11c-8.68.57-17.37,1.77-26,3.09s-17.31,2.85-26,4.4l-13,2.32c-2.18.37-4.35.74-6.55,1.07-1.1.16-2.2.32-3.33.44-.56.06-1.13.12-1.74.15h-.47l-.27,0a1.24,1.24,0,0,0-.39.09,2.57,2.57,0,0,0-1.23,1.54,13,13,0,0,0-.71,2.83,55,55,0,0,0-.46,6.38c-.11,4.35,0,8.78-.35,13.25a50.69,50.69,0,0,1-.85,6.74,21.4,21.4,0,0,1-2.38,6.66,11.78,11.78,0,0,1-2.38,2.92,10.13,10.13,0,0,1-3.36,1.92,12.26,12.26,0,0,1-3.72.6,9.3,9.3,0,0,1-3.86-.73,6.53,6.53,0,0,1-3.05-2.89,9.93,9.93,0,0,1-1.07-3.7,26.35,26.35,0,0,1,.35-7,118.23,118.23,0,0,1,3.18-13c.6-2.11,1.21-4.21,1.75-6.31a36.49,36.49,0,0,0,1.18-6.2,5,5,0,0,0-.24-2.4.48.48,0,0,0-.33-.25.47.47,0,0,0-.18,0,1,1,0,0,0-.28,0l-.8,0c-2.14,0-4.34.19-6.52.33-8.74.59-17.51,1.33-26.28,2s-17.53,1.37-26.32,2-17.57,1.1-26.44,1.16l1.41-1.4A106.1,106.1,0,0,1,1019.7,90a28.82,28.82,0,0,1-2.92,9,12.94,12.94,0,0,1-3.18,3.85,10,10,0,0,1-4.71,2.06,12.76,12.76,0,0,1-5-.25,6.7,6.7,0,0,1-4.29-3.34,11.43,11.43,0,0,1-1.09-5,34.06,34.06,0,0,1,.28-4.67c.35-3,.87-6,1.27-8.93.2-1.47.39-2.93.51-4.4.06-.73.12-1.46.14-2.19,0-.36,0-.73,0-1.09v-.82c0-.11,0-.18,0-.1s0,.09,0,.1,0-.07-.15-.13a3.14,3.14,0,0,0-.68-.39A12,12,0,0,0,998,73a41.32,41.32,0,0,0-4.27-.74c-2.92-.36-5.89-.56-8.86-.71-5.95-.28-11.93-.34-17.91-.32-12,0-23.94.4-35.9.86-23.94,1-47.87,2.33-71.79,3.86S811.46,79.24,787.56,81s-47.8,3.71-71.69,5.66c-12,1-23.86,2-35.89,2.84-.17,0-.43,0-.59,0l-.48.05a3.24,3.24,0,0,0-.93.16,5.87,5.87,0,0,0-1.73.79,13.22,13.22,0,0,0-2.94,2.94c-.9,1.15-1.75,2.39-2.74,3.6a12.71,12.71,0,0,1-3.64,3.2,7.8,7.8,0,0,1-5,.84,4,4,0,0,1-2.57-1.39,4.63,4.63,0,0,1-.82-2.71c0-.83.07-1.61.11-2.32a4.84,4.84,0,0,0-.13-1.8.77.77,0,0,0-.3-.39,1.78,1.78,0,0,0-.65-.2l-.44,0h-.55l-1.11,0c-23.92,1-47.88,2.3-71.83,3.32l-9,.36c-1.5,0-3,.09-4.53.11a4.36,4.36,0,0,0-1.78.32,1.72,1.72,0,0,0-.89,1.14,15.13,15.13,0,0,0,0,4.17,10.3,10.3,0,0,1-.55,4.84,4.94,4.94,0,0,1-1.7,2.08,7.18,7.18,0,0,1-2.35,1,17,17,0,0,1-4.74.31,12.59,12.59,0,0,1-4.69-1.13,8,8,0,0,1-3.48-3.51c-.76-1.42-1.21-2.87-1.89-4a5.19,5.19,0,0,0-2.88-2.48,11.1,11.1,0,0,0-4.12-.51c-1.49.06-3,.09-4.46.19l-9,.56c-47.82,3.28-95.64,7-143.53,9.65-12,.65-23.95,1.2-35.94,1.54l-9,.12c-3,0-6-.11-9-.15-3-.19-6-.29-9-.55s-6-.51-9-.94A206.74,206.74,0,0,1,277,101c-2.88-.84-5.74-1.73-8.63-2.46-1.43-.41-2.89-.67-4.34-1a34.2,34.2,0,0,0-4.37-.5c-1.44-.13-3,0-4.52-.23-.76-.07-1.52-.14-2.27-.28l-1.13-.18-1.12-.26a34.68,34.68,0,0,1-8.48-3.31,35.19,35.19,0,0,0-4-1.87,12.58,12.58,0,0,0-2.07-.53,18.41,18.41,0,0,0-2.17-.14,10.3,10.3,0,0,1-2.36-.27,2.42,2.42,0,0,1-.64-.25l-.32-.19a2.07,2.07,0,0,1-.29-.3,2,2,0,0,1-.37-1.45,21.32,21.32,0,0,1,.46-2.28,17.29,17.29,0,0,0,.33-2.14c0-.35,0-.73,0-1.06a2.31,2.31,0,0,0-.19-.86,1.85,1.85,0,0,0-1.42-.88,13.54,13.54,0,0,0-4.26.29c-2.92.53-5.81,1.43-8.93,1.56a5.39,5.39,0,0,1-1.25-.08,1.82,1.82,0,0,1-1.28-.9,2.21,2.21,0,0,1,0-1.48,7.07,7.07,0,0,1,.45-1.12c.34-.7.71-1.35,1-2a4.47,4.47,0,0,0,.32-.93c.05-.31,0-.44-.1-.53a3.81,3.81,0,0,0-1.85-.22l-2.26,0-4.5-.13c-6-.23-12-.56-18-1.19a68.43,68.43,0,0,1-8.94-1.43,15.33,15.33,0,0,1-2.21-.71,5.48,5.48,0,0,1-1.09-.58,1.74,1.74,0,0,1-.82-1.27,4.71,4.71,0,0,1,.73-2.39,10.94,10.94,0,0,1,1.4-1.88c1-1.14,2.16-2.15,3.25-3.16a15.36,15.36,0,0,0,2.9-3.19,1.6,1.6,0,0,0,.22-.78,1.68,1.68,0,0,0-.46-.68,10.65,10.65,0,0,0-1.67-1.34,37.16,37.16,0,0,0-3.83-2.23,82.21,82.21,0,0,0-16.7-6.28,49.45,49.45,0,0,0-8.77-1.48,68.4,68.4,0,0,0-8.92.28c-11.92,1-23.81,2.61-35.75,3.76-6,.58-12,1.1-17.94,1.41-3,.14-6,.25-9,.26s-6-.09-9-.27c-6-.35-12-.89-17.93-1.53S42,48.92,36.05,48.16s-11.88-1.58-17.82-2.42l-8.9-1.31-4.44-.67-2.22-.35-1.11-.17L1,43.16A1.7,1.7,0,0,1,.69,43Z"/><path class="cls-3" d="M1872.21,40.79c6.14,0,12.28,3.91,12.28,9.21s-8.09,11.16-4.19,11.16,18.14-8.93,18.14-1.39-19,15.07-19,20.65,15.07,2,15.07,8.37-6.14,19.26-11.17,19.26-2.79,28.74-2.79,32.09,7.54,10.05,1.68,10.05-12.28,0-12.28-6.14,1.67-19.26,1.67-25.68-26.23-15.07-19-15.07,18.42-1.39,18.42-5.58-7.25-5.3-7.25-8.93,7.25-4.46,7.25-10.6S1851,73.72,1851,69.26s19.54-7.82,19.54-12.28-11.73-6.14-11.73-10S1866.07,40.79,1872.21,40.79Z"/></g></g></svg>