<svg xmlns="http://www.w3.org/2000/svg" viewBox="0 0 1926.61 202.57"><defs><style>.cls-1,.cls-3{fill:#aa6eab;}.cls-2{fill:#d6b2cf;}.cls-3{stroke:#d6b2cf;stroke-miterlimit:10;}</style></defs><title>uterine-wall</title><g id="Layer_2" data-name="Layer 2"><g id="Graphs"><path class="cls-1" d="M167.87,78.05c4.64-4.65,6.68-4.47,17.09-4.47s26.74,4.47,26.74,6.7-22.29,2.23-22.29,6.32,19,2.61,26.75,2.61,10-1.49,15.6-1.49,5.57,1.86,10.77,1.86,2.23-6.7,11.15-6.7,18.94,2.24,21.91,5.21-26.14,9.31-31,9.31h-24c-9.48,0-37.15-3.73-37.15,7.06s-21.17,2.61-21.17,2.61S163.23,82.7,167.87,78.05Z"/><path class="cls-1" d="M84.29,75.07c0-4.09,8.91-8.93,20.8-8.93s11.52,3.72,17.09,3.72-21.55,9.67-7.06,9.67-21.54,6.33-21.54,6.33S84.29,79.16,84.29,75.07Z"/><path class="cls-1" d="M200.56,107.81c0-4.09,5.94-8.18,19.31-8.18s32.69-4.1,32.69,1.11,3.72,8.19,10,8.19,5.57-1.86,11.15-1.86-5.95,10.42,2.22,10.42,17.84-6.7,17.84,1.86,6.31,8.18,12.25,8.18,3.72,5.21,10.78,5.21,0,4.1,0,10-72.07-9.3-81.73-9.3S200.56,111.91,200.56,107.81Z"/><path class="cls-1" d="M217.83,70.6c0-2.23,11.42-9.2,13.93-6.69s7,9.76-1.39,9.76S217.83,72.84,217.83,70.6Z"/><path class="cls-1" d="M277.17,101.86c4.74,0,17.55-1.4,17.55,1.4s-13.93,5-16.15,5S272.44,101.86,277.17,101.86Z"/><path class="cls-1" d="M285.81,112.19c0-1.4,17-3.63,17-.56s2.51,12.28-2.78,7S285.81,113.58,285.81,112.19Z"/><path class="cls-1" d="M311.44,126.14c0-3.91,10-1.4,14.49-1.4s1.11,3.63,1.11,7.54-8.36-1.68-11.7-1.68S311.44,130.05,311.44,126.14Z"/><path class="cls-1" d="M17.69,97.12.26,71.81,0,41.67C3.09,31.6,13.26,24.28,20.9,24.28c17.7,0,25.74-18.42,43.44-18.42S78,11.72,78,20.93s-31.37-6.7-31.37,23.44S57.9,69.49,71.57,69.49s4,16.74,4,16.74Z"/><path class="cls-1" d="M77.14,60.28c0-10.88,7.94-18.84,19.22-30.14S122.27,41,121.44,51.07s-11.87,0-24.41,8.37S77.14,71.16,77.14,60.28Z"/><path class="cls-1" d="M61.26,34.33c-8.36,0-9.2,11.72-9.2,17.58s3.35,5,10,5,0-18.42,10-18.42S83,34.33,84.66,29.3,69.62,34.33,61.26,34.33Z"/><path class="cls-1" d="M121.44,94.6s25.07-33.48,25.07-42.69S132.3,21.77,132.3,15.07,139.82,0,148.18,0s12.54,10.05,12.54,15.07S149,11.72,149,26s16.71,24.28,27.58,24.28-2.51,26-2.51,26Z"/><path class="cls-2" d="M.52,73.22s56.23,8.94,79.73,8.94S137.88,76.3,151,76.3s33.84,9.77,33.84,12.56-8.53,7.26-8.53,11.31,32.87,4.89,38.19,4.89-3.92,7.26,1.68,7.26,15.66-4.74,15.66.56-3.36,7.26,3.36,7.26,10.07,6.7,24.06,6.7,33.85,13.41,80,13.41S530.92,128,543,128s4.19,11.73,17.9,11.73,1.68-14,10.63-14,81.41-3.91,87.28-3.91-1.4,8.93,6.16,8.93S673.59,119,681.14,119s323.38-21,323.38-6.53-7.55,21.61,5,21.61,12.31-21.23,12.31-31.84c22.38,0,76.65-5.59,86.72-5.59s-15.95,43.29,2.8,42.45,5.31-43,15.66-43,97.35-20.66,97.35-7.26-3.07,50.83,7.84,50.83.28-53.62,15.1-53.62,105.19-39.66,105.19-22.9-4.2,83.78,12.86,83.78-7.27-82.66,6.72-82.66,97.07-17.88,111.34-17.88,5.31,2.8,17.9,2.8S1631.43,24.91,1631.43,35s-14.27,20.11-14.27,29.33,15.67,1.11,15.67,7.82-6.71,5.3-6.71,15.08,7.27,6.7,15.1,6.7,13.43,63.67,21.82,63.67-.56-29-.56-45.8,16.23-13.4,16.23-27.36-13.43-11.73-13.43-21.79S1653,41.39,1667,41.39s95.39,3.35,111.9,3.35,4.47,88.25,4.47,99.42,5.6,10.05,15.11,10.05,2.24-100,21.82-100,102.38,16.2,102.38,16.2l1.12,129H.8Z"/><path class="cls-1" d="M.33,73a3.89,3.89,0,0,1,.76,0l.59.09,1.1.17L5,73.61l4.43.66,8.86,1.28c5.91.83,11.82,1.64,17.74,2.38S47.86,79.38,53.8,80s11.87,1.14,17.82,1.5c1.49.07,3,.17,4.46.21l4.47.08L85,81.7l4.47-.18c6-.31,11.89-.82,17.83-1.4,11.87-1.15,23.7-2.76,35.61-3.83,3-.26,6-.44,9-.42a45.35,45.35,0,0,1,8.93,1.28,84.54,84.54,0,0,1,16.93,6c1.35.67,2.68,1.37,4,2.16a20.92,20.92,0,0,1,1.89,1.28,8,8,0,0,1,.89.77,2.9,2.9,0,0,1,.76,1.1,2.1,2.1,0,0,1-.21,1.43,5.8,5.8,0,0,1-.67,1,16.83,16.83,0,0,1-1.57,1.68c-1.09,1-2.22,2-3.26,3.06a11,11,0,0,0-2.53,3.4,2.88,2.88,0,0,0-.2.94.42.42,0,0,0,0,.28,1.05,1.05,0,0,0,.25.28,5.92,5.92,0,0,0,1.84.87,51,51,0,0,0,8.69,1.6c5.91.67,11.87,1,17.82,1.24,3,.11,6,.2,8.93.22a4.15,4.15,0,0,1,1.27.15,1.76,1.76,0,0,1,.7.41,1.39,1.39,0,0,1,.38.8,2.82,2.82,0,0,1-.22,1.35,10.49,10.49,0,0,1-.48,1.07c-.34.68-.71,1.33-1,2a2.55,2.55,0,0,0-.23.89.41.41,0,0,0,.24.43,4.23,4.23,0,0,0,1.91.15,20.5,20.5,0,0,0,2.17-.29c1.44-.25,2.89-.59,4.36-.9a31.06,31.06,0,0,1,4.5-.73,7.19,7.19,0,0,1,2.41.22,3.07,3.07,0,0,1,1.19.69,2.62,2.62,0,0,1,.67,1.23,4,4,0,0,1,.1,1.26c0,.39,0,.78-.08,1.17a16.68,16.68,0,0,1-.41,2.26,7.41,7.41,0,0,0-.32,2,.56.56,0,0,0,.32.48,2.41,2.41,0,0,0,.87.27,13.36,13.36,0,0,0,2.13.15,12.37,12.37,0,0,1,2.33.2,17.51,17.51,0,0,1,4.33,1.59,47.84,47.84,0,0,0,8.09,3.58,32.09,32.09,0,0,0,8.67,1.3,36.73,36.73,0,0,1,9,1.09c2.94.68,5.81,1.53,8.68,2.36,5.72,1.7,11.44,3.37,17.23,4.73s11.64,2.49,17.53,3.29a215.26,215.26,0,0,0,35.63,1.76c11.91-.28,23.84-.82,35.75-1.49,47.66-2.65,95.26-6.43,142.9-9.83l8.93-.6c3-.19,6-.37,9-.45a11.5,11.5,0,0,1,4.74.87,7,7,0,0,1,2.07,1.5,8.78,8.78,0,0,1,1.39,2c.72,1.42,1.17,2.83,1.89,4A6,6,0,0,0,556,138a11.82,11.82,0,0,0,4.07.76,12.74,12.74,0,0,0,4.13-.39,3.6,3.6,0,0,0,2.59-2.33A10.94,10.94,0,0,0,567,132c0-.74-.11-1.5-.11-2.29a6.75,6.75,0,0,1,.39-2.55,3.46,3.46,0,0,1,2.11-2,7.45,7.45,0,0,1,2.51-.33c2.94,0,5.94-.18,8.92-.3,23.84-1,47.67-2.36,71.53-3.45l4.49-.19,1.13,0a11.81,11.81,0,0,1,1.2,0,4.14,4.14,0,0,1,1.45.35,2.69,2.69,0,0,1,1.24,1.19,5.27,5.27,0,0,1,.42,2.7c0,.79-.11,1.52-.11,2.19a3.3,3.3,0,0,0,.32,1.64,1.72,1.72,0,0,0,1.19.72,6,6,0,0,0,1.9.08,5.31,5.31,0,0,0,1.81-.53,9.72,9.72,0,0,0,3.06-2.61c1.86-2.16,3.31-4.91,6-7a8,8,0,0,1,4.76-1.61c1.42,0,3-.14,4.43-.21l8.93-.52,17.87-1.07q35.76-2.11,71.52-4t71.55-3.45c23.86-1,47.73-1.86,71.61-2.33,11.95-.22,23.9-.35,35.85-.23,6,.07,12,.19,18,.47a141.17,141.17,0,0,1,18,1.71,21.36,21.36,0,0,1,4.6,1.32,6.2,6.2,0,0,1,1.23.73,2.87,2.87,0,0,1,1.12,1.72,2.76,2.76,0,0,1,0,.51v.87l0,1.15a59.08,59.08,0,0,1-1.22,9.07c-.3,1.47-.62,2.93-.82,4.32s-.22,2.76.26,3.38,1.67,1.07,3,1.21c.67.08,1.38.11,2.09.13a9.57,9.57,0,0,0,2-.14,7.26,7.26,0,0,0,3.38-1.57,10.49,10.49,0,0,0,2.44-3.08,26.65,26.65,0,0,0,2.56-8.07,103.74,103.74,0,0,0,1-17.61v-1.39h1.41c8.73-.08,17.52-.63,26.29-1.22s17.55-1.29,26.33-2,17.54-1.47,26.36-2.07c2.21-.15,4.4-.3,6.66-.35l.85,0a5.07,5.07,0,0,1,1.14.09,3.45,3.45,0,0,1,2.27,1.62,5.4,5.4,0,0,1,.66,2.18,12.16,12.16,0,0,1,0,1.9,39.68,39.68,0,0,1-1.26,6.76c-.55,2.16-1.16,4.29-1.76,6.41a116.58,116.58,0,0,0-3.11,12.65A24,24,0,0,0,1106,133a7.11,7.11,0,0,0,.72,2.61,3.46,3.46,0,0,0,1.65,1.58,8.06,8.06,0,0,0,5.34,0,7.49,7.49,0,0,0,4.11-3.49,18.59,18.59,0,0,0,2-5.72,47.14,47.14,0,0,0,.79-6.34c.29-4.31.23-8.7.33-13.14a56.36,56.36,0,0,1,.49-6.78,15.69,15.69,0,0,1,.9-3.55,7.18,7.18,0,0,1,1-1.82,4.76,4.76,0,0,1,1.95-1.46,4.34,4.34,0,0,1,1.21-.28l.55,0h.36c.49,0,1-.07,1.54-.13,1.06-.12,2.14-.27,3.21-.43q3.24-.49,6.48-1.07l13-2.33c8.67-1.56,17.35-3.1,26.08-4.46s17.49-2.56,26.36-3.16a76.31,76.31,0,0,1,13.51.1,22.24,22.24,0,0,1,3.49.7,8.38,8.38,0,0,1,3.58,2,4.45,4.45,0,0,1,1.23,2.23,5.28,5.28,0,0,1,.09,1.16V90l-.06,3.32c-.22,8.82-.55,17.59-.07,26.28a59.84,59.84,0,0,0,1.82,12.68,11.3,11.3,0,0,0,2.58,5,2.85,2.85,0,0,0,1.89.79,1.25,1.25,0,0,0,.71-.18,2.44,2.44,0,0,0,.68-.66,8.89,8.89,0,0,0,1.1-2.5,25.43,25.43,0,0,0,.68-3c.34-2.09.54-4.24.7-6.41.3-4.33.41-8.73.6-13.15s.42-8.85,1-13.33a39.77,39.77,0,0,1,1.47-6.73,17.1,17.1,0,0,1,1.44-3.35,9.52,9.52,0,0,1,2.61-3,7,7,0,0,1,4.09-1.31,18.11,18.11,0,0,0,3-.35c2.07-.39,4.18-.94,6.27-1.52,4.19-1.17,8.37-2.51,12.55-3.87,16.7-5.49,33.29-11.48,50.31-16.36,4.26-1.21,8.55-2.35,12.91-3.29a62.21,62.21,0,0,1,13.5-1.71,17.77,17.77,0,0,1,3.67.45,6.76,6.76,0,0,1,3.79,2.27,4.9,4.9,0,0,1,1,2.33,15.64,15.64,0,0,1,.07,1.93l0,3.32-.28,13.2c-.15,8.79-.17,17.57.19,26.31.18,4.37.46,8.73.92,13.06a98.13,98.13,0,0,0,2.09,12.78,41.2,41.2,0,0,0,1.92,6,14.17,14.17,0,0,0,3.11,4.86,5.18,5.18,0,0,0,2.08,1.19,4.26,4.26,0,0,0,1.13.13,2.46,2.46,0,0,0,.94-.17c1.11-.38,2-2.09,2.53-4a31.88,31.88,0,0,0,.87-6.15c.12-2.13.12-4.28.07-6.45-.12-4.33-.45-8.69-.85-13-.81-8.73-1.91-17.47-2.69-26.3-.38-4.41-.7-8.85-.64-13.38a35.49,35.49,0,0,1,.66-6.94,11.77,11.77,0,0,1,1.38-3.7,5.87,5.87,0,0,1,1.69-1.77,4.89,4.89,0,0,1,2.55-.81,58.54,58.54,0,0,0,6.41-.54c2.15-.26,4.32-.58,6.48-.91,4.33-.67,8.67-1.4,13-2.15,8.66-1.51,17.32-3.1,26-4.7l26-4.75c8.69-1.54,17.36-3.09,26.18-4.25,2.21-.29,4.41-.54,6.77-.63a51.8,51.8,0,0,1,6.9.26,11.07,11.07,0,0,1,3.87,1.08c.66.37,1,.62,1.32.75a5.11,5.11,0,0,0,1.13.33,34.66,34.66,0,0,0,6.09.31c2-.13,4.24-.43,6.39-.73s4.33-.63,6.5-1l13-2.13c17.37-2.9,34.74-5.89,52.19-8.49,8.73-1.29,17.48-2.51,26.3-3.42,4.41-.45,8.83-.83,13.32-1a58.62,58.62,0,0,1,6.86.14,16.94,16.94,0,0,1,3.72.71,5.34,5.34,0,0,1,2.3,1.39,3.48,3.48,0,0,1,.87,2,5.1,5.1,0,0,1,0,.66l0,.49a18.58,18.58,0,0,1-2.13,7.09,50.08,50.08,0,0,1-3.63,5.87c-2.56,3.67-5.34,7.09-7.12,10.71a10.56,10.56,0,0,0-1.3,5.24,1.9,1.9,0,0,0,.61,1.45,3.85,3.85,0,0,0,2,.69,60.87,60.87,0,0,0,6.35.12,10.18,10.18,0,0,1,4.12.8,4.57,4.57,0,0,1,2.15,2.15,4.8,4.8,0,0,1,.41,1.42,7,7,0,0,1,0,1.18,8.69,8.69,0,0,1-1.13,4.15,14.23,14.23,0,0,1-2.46,3,8.5,8.5,0,0,0-2.79,4.53,14,14,0,0,0,0,5.55c.47,1.64,1,2.1,2.81,2.38a35.63,35.63,0,0,0,6.15-.21c1.12-.09,2.27-.16,3.45-.17a4.27,4.27,0,0,1,1.59.24,4.51,4.51,0,0,1,1.35.81,8,8,0,0,1,1.47,1.74,29.7,29.7,0,0,1,2.83,6.56c.71,2.17,1.3,4.33,1.86,6.49,2.19,8.63,3.88,17.28,5.81,25.83,1,4.28,2,8.54,3.19,12.67a56,56,0,0,0,2.08,6,15.56,15.56,0,0,0,1.34,2.52,3.42,3.42,0,0,0,.65.74c.07.06.12.08.09.07a.22.22,0,0,0-.1,0c-.07,0,0,0,0,0s.21,0,.28-.1a1.38,1.38,0,0,0,.35-.51,8.05,8.05,0,0,0,.56-2.47,35.94,35.94,0,0,0-.1-6.2c-.36-4.27-1-8.6-1.68-12.95s-1.33-8.73-1.8-13.18c-.24-2.23-.42-4.48-.48-6.77a24.62,24.62,0,0,1,.7-7.2,16.35,16.35,0,0,1,3.61-6.66,33,33,0,0,1,5.37-4.59,23.28,23.28,0,0,0,4.49-3.95,9.15,9.15,0,0,0,1.92-4.89,15.23,15.23,0,0,0,0-2.87,13.52,13.52,0,0,0-.51-2.75,10,10,0,0,0-2.9-4.5c-1.39-1.31-3.19-2.42-5.09-3.9a15.91,15.91,0,0,1-2.76-2.7,10.28,10.28,0,0,1-1.81-3.82,18.4,18.4,0,0,1-.36-3.63,15.43,15.43,0,0,0-.53-2.83,48,48,0,0,0-2.17-5.91c-.42-1-.86-2.06-1.27-3.16a16.32,16.32,0,0,1-1-3.74,6.87,6.87,0,0,1,.15-2.47,5.22,5.22,0,0,1,1.51-2.51,6.38,6.38,0,0,1,2.19-1.29,10.67,10.67,0,0,1,2-.51,22.42,22.42,0,0,1,3.66-.21l3.34,0,6.62.15,13.22.39,52.81,1.76c8.8.29,17.6.57,26.39.78,2.18,0,4.39.11,6.57.12h2.5a8.11,8.11,0,0,1,1.28.15,7.42,7.42,0,0,1,4,2.54,18.28,18.28,0,0,1,3.27,6.85,50.15,50.15,0,0,1,1.35,6.8,122.19,122.19,0,0,1,1,13.44c.11,4.45.07,8.9,0,13.33-.24,8.87-.79,17.69-1.47,26.5s-1.51,17.6-2.24,26.34c-.16,2.15-.38,4.4-.35,6.34a11.3,11.3,0,0,0,1,5.16,2.91,2.91,0,0,0,1.33,1.22,7.8,7.8,0,0,0,2.38.59,58.44,58.44,0,0,0,6.29.11h1.53a1,1,0,0,0-.54.18c-.07,0,0,0,0,0a8.15,8.15,0,0,0,.92-2.21,47.87,47.87,0,0,0,1.21-6.11c.59-4.26,1-8.62,1.28-13l1.75-26.36c.64-8.81,1.38-17.64,2.77-26.49a94.12,94.12,0,0,1,2.94-13.26,35.3,35.3,0,0,1,2.76-6.58,16.51,16.51,0,0,1,2.28-3.17,9.55,9.55,0,0,1,3.68-2.53,7.72,7.72,0,0,1,2.37-.5c.45,0,.71,0,1,0l.87,0c1.16,0,2.28.1,3.41.17,2.25.17,4.47.38,6.68.63,4.42.5,8.8,1.09,13.18,1.71,8.75,1.26,17.46,2.67,26.16,4.14q26.1,4.44,52.05,9.47l2.17.42,0,2.21,1.23,129,0,2.84h-2.85l-480.74.29-480.74-.33-480.74-.74L.8,200.22H0v-.76Zm.39.45.85,126-.77-.76,480.74-1.28,480.74-.73,480.74-.34,480.74.3-2.82,2.84-1-129,2.19,2.62q-25.89-5-51.91-9.53c-8.67-1.48-17.34-2.9-26-4.17-4.34-.63-8.68-1.22-13-1.71q-3.26-.37-6.48-.63c-1.06-.06-2.14-.15-3.18-.17l-.78,0h-.65a3.06,3.06,0,0,0-.85.17c-1.11.37-2.32,1.74-3.25,3.39a29.45,29.45,0,0,0-2.33,5.58,89.14,89.14,0,0,0-2.79,12.51c-1.36,8.56-2.11,17.3-2.77,26l-1.79,26.37c-.34,4.42-.72,8.84-1.35,13.31a50.35,50.35,0,0,1-1.37,6.83,12.36,12.36,0,0,1-1.73,3.8,5.21,5.21,0,0,1-1.13,1.12,3.84,3.84,0,0,1-2.07.74l-1.78,0a60.58,60.58,0,0,1-6.91-.16,12.21,12.21,0,0,1-4-1,8,8,0,0,1-3.46-3.18,11.75,11.75,0,0,1-1.37-3.94,22.51,22.51,0,0,1-.32-3.68c0-2.47.21-4.61.37-6.84.76-8.82,1.62-17.55,2.29-26.31s1.25-17.51,1.5-26.25a171.33,171.33,0,0,0-.84-26,46.46,46.46,0,0,0-1.21-6.15,14.12,14.12,0,0,0-2.28-5,2.63,2.63,0,0,0-1.41-1,2.07,2.07,0,0,0-.37,0h-.77l-1.67,0c-2.23,0-4.43-.08-6.64-.12-8.82-.23-17.62-.52-26.43-.82l-52.8-1.84-13.2-.41-6.58-.16-3.27,0a16.92,16.92,0,0,0-2.93.15,3.71,3.71,0,0,0-1.8.63.45.45,0,0,0-.17.28,2.18,2.18,0,0,0,0,.81,12.72,12.72,0,0,0,.7,2.64c.35,1,.77,2,1.19,3a54.28,54.28,0,0,1,2.36,6.49,20.31,20.31,0,0,1,.66,3.65,17.09,17.09,0,0,0,.25,2.94,5.48,5.48,0,0,0,1,2.1,11.13,11.13,0,0,0,2,1.9c1.56,1.24,3.54,2.44,5.37,4.15a14.62,14.62,0,0,1,4.13,6.5,16.77,16.77,0,0,1,.69,3.73,18.54,18.54,0,0,1,0,3.72,13.82,13.82,0,0,1-2.88,7.22,27.35,27.35,0,0,1-5.37,4.78,29.76,29.76,0,0,0-4.68,4,11.87,11.87,0,0,0-2.63,4.84,20.15,20.15,0,0,0-.55,5.9c0,2.11.22,4.26.45,6.41.45,4.3,1.1,8.63,1.75,13s1.32,8.73,1.7,13.25a39.58,39.58,0,0,1,.08,7,12.16,12.16,0,0,1-1,3.93,5.78,5.78,0,0,1-1.61,2.1,4.77,4.77,0,0,1-2.75,1.05,4.46,4.46,0,0,1-.81,0,4.94,4.94,0,0,1-.9-.2,4.86,4.86,0,0,1-1.34-.76,7.71,7.71,0,0,1-1.55-1.7,18.71,18.71,0,0,1-1.77-3.3,58.22,58.22,0,0,1-2.26-6.49c-1.26-4.31-2.26-8.63-3.24-12.95-1.93-8.62-3.61-17.28-5.75-25.72-.54-2.1-1.11-4.19-1.76-6.22a27,27,0,0,0-2.35-5.55,3.75,3.75,0,0,0-.63-.79c-.08-.07-.11-.07-.06,0s.41,0,0,0c-1,0-2.07.07-3.15.15a38.13,38.13,0,0,1-7,.18,7.85,7.85,0,0,1-4.16-1.69,7.45,7.45,0,0,1-2.29-3.95,15.69,15.69,0,0,1-.38-3.83,18,18,0,0,1,.42-3.73,11.69,11.69,0,0,1,1.52-3.71,16.65,16.65,0,0,1,2.42-2.89c1.68-1.61,2.29-2.49,2.35-4.23a2.22,2.22,0,0,0,0-.46.43.43,0,0,0,0-.17s0,0-.16-.11a6.5,6.5,0,0,0-2.34-.36,63.07,63.07,0,0,1-6.84-.17,8.14,8.14,0,0,1-4.11-1.66,5.68,5.68,0,0,1-1.56-2.08,7.14,7.14,0,0,1-.55-2.28,14.67,14.67,0,0,1,1.72-7.46c2.15-4.29,5-7.72,7.48-11.28a42.4,42.4,0,0,0,3.32-5.35,14.43,14.43,0,0,0,1.71-5.45v-.33c0-.06,0-.37,0-.16a.94.94,0,0,0,.2.48,5.44,5.44,0,0,0-.53-.24,13.51,13.51,0,0,0-2.76-.5,55.38,55.38,0,0,0-6.34-.13c-4.31.13-8.67.49-13,.93-8.71.89-17.42,2.08-26.11,3.35-17.39,2.57-34.75,5.53-52.13,8.42l-13.06,2.11c-2.18.34-4.37.67-6.57,1s-4.37.61-6.73.75c-.29,0-.61,0-.93,0h-.85c-.57,0-1.13,0-1.71,0a26,26,0,0,1-3.59-.37,8.34,8.34,0,0,1-2-.62c-.7-.32-1.25-.71-1.55-.87a7.73,7.73,0,0,0-2.46-.64,50.39,50.39,0,0,0-6.3-.23c-2,.07-4.22.31-6.37.58-8.65,1.13-17.33,2.67-26,4.19l-26,4.71c-8.66,1.59-17.33,3.17-26,4.67-4.35.75-8.7,1.48-13.08,2.14-2.19.33-4.38.65-6.59.92a62.44,62.44,0,0,1-6.76.56,1,1,0,0,0-.55.17,1.88,1.88,0,0,0-.56.61,7.83,7.83,0,0,0-.89,2.47,32.52,32.52,0,0,0-.58,6.19c-.06,4.28.24,8.64.6,13,.76,8.72,1.85,17.46,2.65,26.27.4,4.41.74,8.84.85,13.31.05,2.24.05,4.48-.08,6.76a35.68,35.68,0,0,1-1,6.9,13.87,13.87,0,0,1-1.45,3.53,6.88,6.88,0,0,1-3.29,3,6.63,6.63,0,0,1-2.28.44,8.15,8.15,0,0,1-2.14-.27,8.73,8.73,0,0,1-3.61-2,17.56,17.56,0,0,1-4-6.16,43.44,43.44,0,0,1-2.1-6.56,101.45,101.45,0,0,1-2.16-13.28c-.46-4.43-.74-8.86-.92-13.29-.35-8.85-.32-17.7-.16-26.52l.3-13.21.06-3.28c0-1.3,0-1.68-.29-2.06a3.31,3.31,0,0,0-1.83-1,13,13,0,0,0-2.87-.34,59.34,59.34,0,0,0-12.66,1.61c-4.25.91-8.48,2-12.7,3.21-16.85,4.81-33.43,10.76-50.2,16.25-4.2,1.36-8.41,2.7-12.7,3.9-2.15.59-4.31,1.15-6.57,1.58a21.89,21.89,0,0,1-3.58.4,3.43,3.43,0,0,0-2.1.66,9.34,9.34,0,0,0-2.81,4.66,37.81,37.81,0,0,0-1.35,6.16c-.6,4.24-.83,8.61-1,13s-.31,8.79-.63,13.24c-.16,2.23-.36,4.46-.74,6.72a29.1,29.1,0,0,1-.78,3.43,11.79,11.79,0,0,1-1.6,3.49,5.68,5.68,0,0,1-1.7,1.59,4.6,4.6,0,0,1-2.45.63,6.22,6.22,0,0,1-4.08-1.66,10.49,10.49,0,0,1-2.28-3.18,21.48,21.48,0,0,1-1.26-3.36,63,63,0,0,1-1.92-13.42c-.49-8.91-.13-17.76.1-26.55l.06-3.27a12.22,12.22,0,0,0,0-1.3,1.2,1.2,0,0,0-.36-.61,5.37,5.37,0,0,0-2.2-1.12,20.53,20.53,0,0,0-3-.6,72.78,72.78,0,0,0-12.88-.09c-8.7.57-17.41,1.77-26.08,3.09s-17.35,2.86-26,4.41l-13,2.31c-2.18.38-4.35.74-6.55,1.07-1.1.17-2.21.32-3.34.45-.57.06-1.13.11-1.74.14h-.48l-.26,0a1.4,1.4,0,0,0-.39.09,2.57,2.57,0,0,0-1.24,1.55,13.11,13.11,0,0,0-.71,2.84,53.07,53.07,0,0,0-.46,6.39c-.11,4.36,0,8.79-.35,13.27a52.36,52.36,0,0,1-.86,6.75,21.6,21.6,0,0,1-2.4,6.67,12,12,0,0,1-2.4,2.91,9.88,9.88,0,0,1-3.37,1.9,12.36,12.36,0,0,1-3.72.6,9,9,0,0,1-3.87-.75,6.55,6.55,0,0,1-3-2.9,10.32,10.32,0,0,1-1.06-3.71,26.92,26.92,0,0,1,.36-7,120.79,120.79,0,0,1,3.21-13c.6-2.12,1.21-4.22,1.75-6.32a36.6,36.6,0,0,0,1.18-6.21,4.7,4.7,0,0,0-.27-2.36c-.12-.18-.12-.18-.33-.24a7.78,7.78,0,0,0-1.31,0c-2.14,0-4.35.19-6.53.33-8.76.58-17.54,1.33-26.32,2s-17.57,1.38-26.37,2-17.6,1.11-26.48,1.17l1.4-1.4a105.14,105.14,0,0,1-1.06,18.09,29.34,29.34,0,0,1-2.87,8.92,13.64,13.64,0,0,1-3.11,3.87,10.09,10.09,0,0,1-4.65,2.15,12.62,12.62,0,0,1-2.49.17c-.78,0-1.57-.05-2.38-.15a10.84,10.84,0,0,1-2.5-.58,5.05,5.05,0,0,1-2.41-1.79,5.35,5.35,0,0,1-.87-2.82,13.26,13.26,0,0,1,.16-2.49c.23-1.56.56-3,.85-4.48a57,57,0,0,0,1.19-8.66l0-1.08v-.54c0-.14,0-.5,0-.32s0,.06-.14-.07a3.48,3.48,0,0,0-.69-.41,19.65,19.65,0,0,0-4-1.13,138.34,138.34,0,0,0-17.62-1.7c-5.93-.29-11.89-.43-17.85-.5-11.91-.15-23.84,0-35.77.16-23.86.42-47.71,1.23-71.56,2.19s-47.69,2.08-71.53,3.3-47.68,2.54-71.51,3.91l-17.88,1-8.94.5c-1.51.07-3,.17-4.52.21a5.82,5.82,0,0,0-3.57,1.2c-2.15,1.62-3.63,4.26-5.62,6.62a11.78,11.78,0,0,1-3.73,3.12,7.56,7.56,0,0,1-2.47.72,8.52,8.52,0,0,1-2.56-.12,3.72,3.72,0,0,1-2.46-1.64,5.11,5.11,0,0,1-.61-2.68c0-.82.09-1.58.12-2.28a3.65,3.65,0,0,0-.18-1.68.75.75,0,0,0-.35-.33,1.92,1.92,0,0,0-.72-.16c-.27,0-.69,0-1,0l-1.1,0-4.46.18c-23.84,1-47.69,2.32-71.55,3.31-3,.12-6,.25-9,.29a5.75,5.75,0,0,0-1.91.21,1.64,1.64,0,0,0-1,1,10.81,10.81,0,0,0-.15,4,12.58,12.58,0,0,1-.33,4.79,5.31,5.31,0,0,1-1.47,2.23,6.53,6.53,0,0,1-2.29,1.22,14.52,14.52,0,0,1-4.73.46,13.32,13.32,0,0,1-4.68-.91,7.69,7.69,0,0,1-3.73-3.23c-.85-1.4-1.31-2.86-1.94-4.1a5.61,5.61,0,0,0-2.65-2.76,9.86,9.86,0,0,0-4-.72c-2.94.07-5.91.25-8.89.43l-8.93.58c-47.62,3.31-95.24,7-142.93,9.56-11.93.65-23.86,1.17-35.81,1.43A216.73,216.73,0,0,1,310.6,139q-8.91-1.23-17.65-3.34c-5.83-1.38-11.57-3.08-17.29-4.78-2.86-.84-5.71-1.69-8.59-2.36a35.42,35.42,0,0,0-8.75-1.08,33.07,33.07,0,0,1-9-1.37,49,49,0,0,1-8.26-3.66,16.33,16.33,0,0,0-4-1.5,10.52,10.52,0,0,0-2.12-.18,16.91,16.91,0,0,1-2.32-.17,3.84,3.84,0,0,1-1.25-.42,1.7,1.7,0,0,1-.86-1.31,8.05,8.05,0,0,1,.35-2.4,18.2,18.2,0,0,0,.39-2.14,6.91,6.91,0,0,0,0-2c-.2-1.17-1.73-1.4-3.13-1.3a28.65,28.65,0,0,0-4.33.69c-1.46.31-2.92.65-4.41.91a21,21,0,0,1-2.27.29,5,5,0,0,1-2.5-.28A1.44,1.44,0,0,1,214,112a1.53,1.53,0,0,1-.2-.8,3.7,3.7,0,0,1,.31-1.28c.3-.74.68-1.4,1-2a4.12,4.12,0,0,0,.61-1.8c0-.17-.09-.23-.35-.34a3.42,3.42,0,0,0-1-.1c-3,0-6-.12-9-.23-6-.25-11.94-.6-17.89-1.29a51.67,51.67,0,0,1-8.89-1.65,7.15,7.15,0,0,1-2.17-1.06,2.13,2.13,0,0,1-.48-.57,1.44,1.44,0,0,1-.15-.8,3.92,3.92,0,0,1,.27-1.24A11.86,11.86,0,0,1,178.89,95c1.08-1.07,2.21-2.05,3.28-3.07a18.37,18.37,0,0,0,1.49-1.58,4.33,4.33,0,0,0,.55-.84,1.32,1.32,0,0,0,.17-.73,2.24,2.24,0,0,0-.52-.7,8.91,8.91,0,0,0-.8-.7,20.45,20.45,0,0,0-1.81-1.22c-1.26-.77-2.57-1.47-3.89-2.12-10.68-5-22.46-8.73-34.37-6.89-11.87,1-23.71,2.63-35.6,3.76-6,.57-11.9,1.07-17.87,1.37L85,82.47l-4.48.06-4.49-.08c-1.5,0-3-.15-4.48-.22-6-.37-11.92-.9-17.85-1.54s-11.87-1.34-17.79-2.1S24.1,77,18.19,76.18l-8.86-1.3L4.9,74.21l-2.21-.34L1.58,73.7l-.52-.09A1,1,0,0,1,.72,73.45Z"/><path class="cls-1" d="M1876.77,71.25c6.15,0,12.31,3.91,12.31,9.21s-8.12,11.17-4.2,11.17,18.18-8.93,18.18-1.39-19,15.08-19,20.66,15.11,2,15.11,8.38S1893,138.55,1888,138.55s-2.8,28.77-2.8,32.12,7.55,10.05,1.68,10.05-12.31,0-12.31-6.14,1.68-19.27,1.68-25.7-26.3-15.08-19-15.08,18.47-1.39,18.47-5.58-7.28-5.31-7.28-8.94,7.28-4.47,7.28-10.61-20.14-4.47-20.14-8.94,19.58-7.82,19.58-12.29-11.75-6.14-11.75-10S1870.61,71.25,1876.77,71.25Z"/><path class="cls-2" d="M1876.77,71a14.59,14.59,0,0,1,10.44,4.16,9.08,9.08,0,0,1,1.67,2.42,7.78,7.78,0,0,1,.66,2.91,8.11,8.11,0,0,1-.59,2.94,16.34,16.34,0,0,1-1.29,2.62c-.49.84-1,1.63-1.54,2.42a15.39,15.39,0,0,0-1.37,2.27.71.71,0,0,0-.06.26.35.35,0,0,0-.1-.24.13.13,0,0,0-.07-.06h0a2.71,2.71,0,0,0,.41,0,4.65,4.65,0,0,0,.55-.1,18.86,18.86,0,0,0,2.5-.89c1.71-.71,3.42-1.51,5.2-2.24a24.71,24.71,0,0,1,5.74-1.78,8.22,8.22,0,0,1,1.74-.07,4.6,4.6,0,0,1,2,.57,3.87,3.87,0,0,1,1.67,1.77l.22.54.13.51a5.14,5.14,0,0,1,.14,1,7.37,7.37,0,0,1-.76,3.64,13.69,13.69,0,0,1-1.8,2.76c-2.69,3.2-5.84,5.44-8.84,7.72-1.5,1.13-3,2.27-4.32,3.4a20.44,20.44,0,0,0-1.83,1.73,4.54,4.54,0,0,0-1,1.5c0,.09,0,.12,0,.16a.45.45,0,0,0,0,.12s0,0,.08.12a4,4,0,0,0,1.55.74c1.52.46,3.4.7,5.31,1.07a23,23,0,0,1,3,.74,8.79,8.79,0,0,1,3.2,1.79,4.93,4.93,0,0,1,1.25,1.87,5.32,5.32,0,0,1,.29,1.09,9.4,9.4,0,0,1,0,1,16.29,16.29,0,0,1-.45,3.12,32,32,0,0,1-1.92,5.64,37,37,0,0,1-2.78,5.19,19.91,19.91,0,0,1-3.91,4.59,7.2,7.2,0,0,1-3,1.55,4.65,4.65,0,0,1-.93.1h-.13l-.06,0a1.35,1.35,0,0,0-.53.59,8.45,8.45,0,0,0-.85,2.38,26,26,0,0,0-.48,2.69c-.24,1.83-.4,3.69-.46,5.56-.12,3.74-.12,7.49,0,11.25l.27,5.63.13,2.86a5.48,5.48,0,0,0,.82,2.26c.87,1.6,2,3.05,2.88,5a3.74,3.74,0,0,1,.34,1.85,2.08,2.08,0,0,1-.55,1.18,2.54,2.54,0,0,1-1,.61,5.88,5.88,0,0,1-1.71.26l-1.43,0a30,30,0,0,1-5.86-.32,10.25,10.25,0,0,1-3-1,6.32,6.32,0,0,1-2.51-2.49,7.77,7.77,0,0,1-.83-3.35c0-1,0-2,0-2.91,0-1.91.13-3.81.22-5.7l.63-11.26c.09-1.86.15-3.72.15-5.52v-.33a.11.11,0,0,1,0-.06s0-.1-.07-.2a3.57,3.57,0,0,0-.44-.68,10.81,10.81,0,0,0-1.68-1.59,59.63,59.63,0,0,0-9.31-5.5c-1.67-.85-3.35-1.67-5.08-2.58-.43-.23-.87-.47-1.32-.74a10.41,10.41,0,0,1-1.53-1,4.34,4.34,0,0,1-.6-.64,2.67,2.67,0,0,1-.22-.35,2.29,2.29,0,0,1-.23-.54,2.43,2.43,0,0,1-.13-.86,2.67,2.67,0,0,1,.27-1.11,2.91,2.91,0,0,1,.6-.8,2.91,2.91,0,0,1,1.2-.66c.14,0,.32-.09.44-.11l.33-.05c.38,0,.73,0,1,0h.68a52.32,52.32,0,0,0,10.64-1.29,18.33,18.33,0,0,0,2.37-.74,7.32,7.32,0,0,0,1.77-.93.94.94,0,0,0,.28-.29.15.15,0,0,1,0,.06s0,0,0,.06a0,0,0,0,0,0,0l0,0c0-.21-.07-.41-.46-.85a11.76,11.76,0,0,0-1.75-1.41c-.73-.52-1.57-1-2.48-1.81-.23-.21-.46-.41-.69-.63s-.47-.52-.7-.8a9.18,9.18,0,0,1-.64-1.05,5.94,5.94,0,0,1-.44-1.31,5.28,5.28,0,0,1,.2-2.79c.08-.22.17-.43.26-.64a4.37,4.37,0,0,1,.32-.53l.34-.51.34-.39a17.65,17.65,0,0,1,2.54-2.18,15.23,15.23,0,0,0,1.87-1.56,4.52,4.52,0,0,0,1.07-1.49,4.27,4.27,0,0,0,.25-.79,3.26,3.26,0,0,0,0-.45l0-.22s0-.09,0-.1h0s0,0,0,0a1.57,1.57,0,0,0-.39-.36,7.75,7.75,0,0,0-1.89-.91,42,42,0,0,0-5.12-1.31c-1.81-.38-3.67-.71-5.6-1.17a25.47,25.47,0,0,1-3-.93,9.12,9.12,0,0,1-1.66-.86,5.28,5.28,0,0,1-.91-.74,4.17,4.17,0,0,1-.84-1.3,3.71,3.71,0,0,1,.26-3.11,6,6,0,0,1,1.42-1.62,13.62,13.62,0,0,1,2.81-1.68c1.83-.85,3.64-1.49,5.43-2.13s3.56-1.22,5.27-1.89a16.91,16.91,0,0,0,4.61-2.37,2.44,2.44,0,0,0,.53-.66,1.31,1.31,0,0,0,0-.72,4.14,4.14,0,0,0-1.42-1.75,36,36,0,0,0-4.72-2.84c-.83-.46-1.67-.93-2.48-1.49a6.49,6.49,0,0,1-2.17-2.16,2.48,2.48,0,0,1-.25-1.66l.06-.4.15-.38.14-.37.21-.33a6.44,6.44,0,0,1,2.22-2,18.1,18.1,0,0,1,5.4-1.93A28.47,28.47,0,0,1,1876.77,71Zm0,.5a27.93,27.93,0,0,0-5.55.63,16.32,16.32,0,0,0-5.14,2,5.62,5.62,0,0,0-1.86,1.83l-.15.27-.1.29-.09.29,0,.3a1.47,1.47,0,0,0,.2,1.07,5.49,5.49,0,0,0,1.91,1.66c.78.45,1.62.85,2.46,1.24a36.41,36.41,0,0,1,5.16,2.63,5.88,5.88,0,0,1,2.26,2.43,3.35,3.35,0,0,1,.23,2,4.1,4.1,0,0,1-1,1.69,12.07,12.07,0,0,1-2.51,1.92c-.86.52-1.72,1-2.59,1.39-1.73.86-3.47,1.62-5.18,2.4s-3.39,1.55-4.9,2.43a11.87,11.87,0,0,0-1.94,1.37,1.75,1.75,0,0,0-.41.51c0,.06.11-.17,0-.39s0-.14-.07-.14.08,0,.22.11a4,4,0,0,0,.88.36,18.63,18.63,0,0,0,2.44.58c1.75.35,3.61.6,5.5.91a41.18,41.18,0,0,1,5.86,1.3,12.74,12.74,0,0,1,3.2,1.51,6.91,6.91,0,0,1,1.64,1.58,5.23,5.23,0,0,1,.93,2.59l0,.34c0,.11,0,.17,0,.26l0,.48c0,.32,0,.63-.09,1a9.52,9.52,0,0,1-2.64,5.05,21.76,21.76,0,0,1-2.42,2.1,13.17,13.17,0,0,0-1.74,1.51l-.12.13a.19.19,0,0,1-.05.09s0,.06,0,.07,0,0,0,0,0,0,0,0,0,0,0,0,.08.1.09.16a2,2,0,0,1,.23.26l.35.31c.54.46,1.28,1,2.09,1.52a16.3,16.3,0,0,1,2.6,2.17c.23.25.45.54.66.81a8.58,8.58,0,0,1,.58,1,6.17,6.17,0,0,1,.62,2.38l0,.31,0,.38a3.67,3.67,0,0,1-.12.75,4.9,4.9,0,0,1-.54,1.37,6.07,6.07,0,0,1-1.59,1.8,11.16,11.16,0,0,1-3.2,1.71,23.44,23.44,0,0,1-3,.88,57.2,57.2,0,0,1-11.78,1.18h-1.19a.29.29,0,0,0,.09,0,1.27,1.27,0,0,0,.34-.14,2.19,2.19,0,0,0,.39-.29,2.25,2.25,0,0,0,.49-.66,2.37,2.37,0,0,0,.23-.94,1.93,1.93,0,0,0-.1-.69c-.08-.23-.12-.31-.15-.38l-.13-.2c-.1-.13-.13-.14-.12-.13a6.43,6.43,0,0,0,.8.56l1.13.66c1.59.88,3.27,1.75,4.94,2.65s3.36,1.82,5,2.83a37.55,37.55,0,0,1,4.92,3.42,14.22,14.22,0,0,1,2.32,2.38,7.62,7.62,0,0,1,1,1.75,5.05,5.05,0,0,1,.3,1.16c0,.21,0,.44,0,.66l0,.36c0,2-.21,3.88-.38,5.77-.36,3.79-.81,7.53-1.24,11.26-.2,1.87-.41,3.73-.55,5.58-.08.92-.14,1.84-.17,2.74a5.46,5.46,0,0,0,.36,2.12,5,5,0,0,0,3.63,2.36,29.09,29.09,0,0,0,5.38.56l1.41,0a3.89,3.89,0,0,0,1.08-.08,1,1,0,0,0,.21-.09s0,0,0-.07a1.87,1.87,0,0,0-.17-.9c-.61-1.55-1.75-3.13-2.64-4.86a7.07,7.07,0,0,1-.94-3.05c0-.9-.06-1.86-.09-2.79l-.21-5.66c-.11-3.77-.24-7.55-.14-11.35,0-1.9.09-3.8.28-5.71a29.06,29.06,0,0,1,.4-2.89,11.43,11.43,0,0,1,.92-3,3.55,3.55,0,0,1,1.31-1.5,2.61,2.61,0,0,1,1.17-.32,2,2,0,0,0,.47-.09,4.92,4.92,0,0,0,1.9-1.2,17.69,17.69,0,0,0,3.11-4.2,32.5,32.5,0,0,0,3.61-10.08,15.42,15.42,0,0,0,.2-2.48,1.38,1.38,0,0,0-.13-.65,1.11,1.11,0,0,0-.35-.42,5,5,0,0,0-1.78-.79,23.7,23.7,0,0,0-2.51-.5c-1.79-.29-3.68-.44-5.79-1a7.78,7.78,0,0,1-3.46-1.76A4.56,4.56,0,0,1,1882,112a5,5,0,0,1,.08-2.5,8.53,8.53,0,0,1,2-3.26,24,24,0,0,1,2.25-2.17c1.52-1.3,3.09-2.4,4.62-3.51s3-2.19,4.48-3.31a31.32,31.32,0,0,0,4-3.47,6.33,6.33,0,0,0,2-3.67,1.39,1.39,0,0,0,0-.42v-.18a.56.56,0,0,1,0-.12c-.06-.14-.06-.21-.18-.29a3,3,0,0,0-1.73-.26,23.4,23.4,0,0,0-5.15,1.14c-1.77.54-3.54,1.19-5.37,1.77a21.16,21.16,0,0,1-2.9.74,5.51,5.51,0,0,1-.85.07,3.46,3.46,0,0,1-1-.14l-.32-.14a1.73,1.73,0,0,1-.35-.27,1.4,1.4,0,0,1-.28-.42,1.36,1.36,0,0,1-.11-.44,2.44,2.44,0,0,1,.26-1.11,17.49,17.49,0,0,1,1.71-2.45c.58-.75,1.15-1.48,1.67-2.24a9.56,9.56,0,0,0,2-4.88,6.93,6.93,0,0,0-.47-2.58,8.11,8.11,0,0,0-1.43-2.28A13.75,13.75,0,0,0,1876.77,71.5Z"/><path class="cls-1" d="M1726.83,182.23c16.77,0,23.48-7.25,23.48-10.6s-16.78-6.14-21.81-6.14-6.15-8.93-6.15-14-8.38,0-15.09,0,7.82,6.7,7.82,11.17-14,9.49-14,13.39S1710.05,182.23,1726.83,182.23Z"/><path class="cls-2" d="M1726.83,182a33.11,33.11,0,0,0,9.09-1.23,26.23,26.23,0,0,0,8-3.87,16.44,16.44,0,0,0,3-2.82,6.94,6.94,0,0,0,.93-1.51l.16-.35c0-.1,0-.19.07-.29s0-.15,0-.21a.35.35,0,0,1,0-.06.67.67,0,0,0,0,.31c.11.33.12.25,0,.16s-.36-.24-.61-.39a15.12,15.12,0,0,0-1.79-.81c-1.31-.51-2.73-1-4.16-1.4-2.86-.87-5.81-1.66-8.79-2.3a39.25,39.25,0,0,0-4.49-.72,5,5,0,0,1-2.64-1.07,6.62,6.62,0,0,1-1-1,9.21,9.21,0,0,1-.72-1.08,17.59,17.59,0,0,1-1.64-4.58,41.74,41.74,0,0,1-.74-4.7c-.09-.78-.14-1.57-.18-2.36s-.22-1.09-.46-1.18a3.14,3.14,0,0,0-1.57,0,17.8,17.8,0,0,0-2.09.53c-2.88.86-5.82,2.12-9.29,2.46l-.66,0-.45.05a1.26,1.26,0,0,0-.26.06s0,0,0,0a.84.84,0,0,0,.37-.21,1.68,1.68,0,0,0,.56-.88,1.63,1.63,0,0,0,0-.82c0-.15,0-.14-.07-.21s0,0,0,0a6.79,6.79,0,0,0,.57.53c1,.85,2.31,1.77,3.56,2.73a28.9,28.9,0,0,1,3.8,3.31,9.26,9.26,0,0,1,1.78,2.63,6.66,6.66,0,0,1,.32,1,5.06,5.06,0,0,1,.08,1.23,5.45,5.45,0,0,1-.58,2.13,9.67,9.67,0,0,1-1.92,2.53,23.45,23.45,0,0,1-2,1.71c-1.33,1-2.66,1.87-4,2.71s-2.57,1.64-3.71,2.45a11.14,11.14,0,0,0-1.45,1.2,4.62,4.62,0,0,0-.42.46c-.06.08-.07.1-.07-.09,0,0,0,0,0,0a.67.67,0,0,0,.16.31,4.62,4.62,0,0,0,1.23,1,19.67,19.67,0,0,0,3.84,1.69A58.09,58.09,0,0,0,1726.83,182Zm0,.5c-3.1,0-6.2.09-9.32.15a75.82,75.82,0,0,1-9.5-.22,20.2,20.2,0,0,1-5-1.13,8.78,8.78,0,0,1-2.63-1.55,5.9,5.9,0,0,1-1.2-1.55,5,5,0,0,1-.53-2.19,4.93,4.93,0,0,1,.64-2.28,7.34,7.34,0,0,1,1-1.37,16.37,16.37,0,0,1,2-1.88c1.32-1.08,2.64-2,3.92-2.83s2.54-1.69,3.67-2.54a17.77,17.77,0,0,0,1.56-1.26,5.58,5.58,0,0,0,1-1.08c0-.09.09-.16.07-.07s0,0,0,.07,0,0,0-.1a4.54,4.54,0,0,0-.77-1.21,26.68,26.68,0,0,0-3-2.94c-1.14-1-2.34-1.93-3.6-3.16a10.93,10.93,0,0,1-1-1.17c-.1-.15-.19-.27-.29-.45a3.75,3.75,0,0,1-.31-.74,2.6,2.6,0,0,1,.81-2.75,3.4,3.4,0,0,1,.87-.5c.19-.06.39-.11.58-.15a5.15,5.15,0,0,1,.89-.1h.71l.5,0a56,56,0,0,0,8.87-1.12,21.42,21.42,0,0,1,2.48-.26,8.28,8.28,0,0,1,1.38.08,3.77,3.77,0,0,1,1.55.57,2.7,2.7,0,0,1,1.05,1.49,4.55,4.55,0,0,1,.13,1.45c0,.76,0,1.51,0,2.27a24,24,0,0,0,.53,4.48,12.6,12.6,0,0,0,1.54,4.08,5.06,5.06,0,0,0,1.35,1.44,2.62,2.62,0,0,0,.81.35,2.08,2.08,0,0,0,.86.1c1.53-.07,3.18,0,4.74,0a65.72,65.72,0,0,1,9.45,1,32.5,32.5,0,0,1,4.73,1.26,15.38,15.38,0,0,1,2.43,1.08,7.54,7.54,0,0,1,1.3.91,4.32,4.32,0,0,1,1.36,2,5.31,5.31,0,0,1,.13.89c0,.19,0,.33-.06.51a3.65,3.65,0,0,1-.19.93l-.28.8c-.12.24-.24.47-.37.69a10.1,10.1,0,0,1-1.78,2.24,16.66,16.66,0,0,1-4.31,2.86,31.35,31.35,0,0,1-9.36,2.36C1733,182.34,1729.93,182.44,1726.83,182.48Z"/><path class="cls-1" d="M1715.08,139.81c-6.15,0-22-11.72-15.09-11.72s10.06-11.72,15.09-11.72-13.41-7.25-13.41-15.63,2.23-19.53,7.82-19.53-5-13.95-5-21.77S1733,54.23,1733,57.77s-15.1,5-15.1,13.39,17.33,17.3,17.33,22.33-14.53,10.6-14.53,15.63,25.15,4.28,25.15,10S1721.23,139.81,1715.08,139.81Z"/><path class="cls-2" d="M1715.08,140.06a12.81,12.81,0,0,1-4.34-1.07,39.84,39.84,0,0,1-4-1.92,38.71,38.71,0,0,1-7.34-5.09,8.15,8.15,0,0,1-1.54-1.85,2.07,2.07,0,0,1-.25-1.67,1.9,1.9,0,0,1,1.44-1.12,15.07,15.07,0,0,0,2.13-.37,5.88,5.88,0,0,0,1.68-.84c2.12-1.52,3.62-4,5.33-6.42a20.43,20.43,0,0,1,3.1-3.67,6.53,6.53,0,0,1,2.65-1.44,4.57,4.57,0,0,1,.85-.14l.46,0s0,0,0,0l-.1,0a2.32,2.32,0,0,0-.32.14,2.08,2.08,0,0,0-.31.25,1.88,1.88,0,0,0-.32.45,2.14,2.14,0,0,0-.18.6,2.27,2.27,0,0,0,0,.49.94.94,0,0,0,.09.31.35.35,0,0,0,.06.14l.09.17s-.32-.26-.57-.43l-.85-.57-1.84-1.18c-1.23-.81-2.49-1.65-3.72-2.57a23.42,23.42,0,0,1-6.62-7,10.24,10.24,0,0,1-1-2.62,7.14,7.14,0,0,1-.18-1.48v-.66l0-.58c.06-1.53.18-3,.38-4.57a35.64,35.64,0,0,1,2.27-9,15.19,15.19,0,0,1,2.57-4.24,7.11,7.11,0,0,1,2.21-1.68,5.3,5.3,0,0,1,1.41-.46,4.53,4.53,0,0,1,.74-.08h.53c.22,0,.18,0,.16,0s0,0,.06-.17a5.31,5.31,0,0,0-.21-1.74,33.72,33.72,0,0,0-1.38-4c-1.08-2.71-2.27-5.42-3.24-8.25a23.91,23.91,0,0,1-1.15-4.4,11,11,0,0,1-.12-1.17l0-.59a3.07,3.07,0,0,1,0-.67,4,4,0,0,1,1.3-2.32,10.16,10.16,0,0,1,4.26-2.06,29.91,29.91,0,0,1,4.47-.79,44.68,44.68,0,0,1,4.48-.26c1.49,0,3,0,4.48.07s3,.23,4.49.45A23,23,0,0,1,1731.8,55a7.5,7.5,0,0,1,1.22.59,3.82,3.82,0,0,1,.68.53,2.49,2.49,0,0,1,.66,1.1,2.09,2.09,0,0,1,.06.75,2.6,2.6,0,0,1-.1.58,4.45,4.45,0,0,1-.19.51c-.08.15-.17.28-.25.42a5.53,5.53,0,0,1-1.08,1.12,25.77,25.77,0,0,1-4.1,2.38c-2.6,1.32-5.17,2.61-6.92,4.34a4.79,4.79,0,0,0-1.28,5.71,20.64,20.64,0,0,0,4.82,6.14c2,2,4.27,3.79,6.52,5.77a44.33,44.33,0,0,1,3.37,3.26,14.25,14.25,0,0,1,1.63,2.14,7.29,7.29,0,0,1,.7,1.53,5,5,0,0,1,.25,2.1,6.78,6.78,0,0,1-1.29,3.28,13.59,13.59,0,0,1-1.78,2,43.08,43.08,0,0,1-3.65,3,67.14,67.14,0,0,0-6.59,5.17,7.35,7.35,0,0,0-1,1.18,1.62,1.62,0,0,0-.18.37s0,.07,0,.07,0,.06,0,0a.42.42,0,0,0,0-.22c-.07-.13,0-.22-.14-.3s0,0,0,0a.38.38,0,0,1,.12.1l.26.16a8.54,8.54,0,0,0,1.55.67,84.28,84.28,0,0,0,8.23,2,63,63,0,0,1,8.79,2.29,18.54,18.54,0,0,1,2.29,1,8,8,0,0,1,2.34,1.81,8.13,8.13,0,0,1,.52.78,5.11,5.11,0,0,1,.36,1,4.74,4.74,0,0,1,.08,1,5.81,5.81,0,0,1-1.55,3.39,23.85,23.85,0,0,1-3.4,3.29c-1.18,1-2.4,1.83-3.64,2.68-2.48,1.67-5,3.18-7.61,4.62s-5.2,2.81-7.9,4c-1.35.6-2.69,1.21-4.09,1.72A14.4,14.4,0,0,1,1715.08,140.06Zm0-.5a13.8,13.8,0,0,0,4.15-1.1,39.59,39.59,0,0,0,4-1.82,77.35,77.35,0,0,0,7.51-4.51,76.37,76.37,0,0,0,6.94-5.28,31.38,31.38,0,0,0,5.74-6.07,4.39,4.39,0,0,0,.63-1.43c0-.08,0-.11,0-.17s0,0,0,0,0,0,0,0a1.2,1.2,0,0,1-.12-.11,9.12,9.12,0,0,0-3.07-1.29,41.6,41.6,0,0,0-4.09-.85c-1.41-.26-2.84-.49-4.29-.71a64.42,64.42,0,0,1-9-1.85,14.66,14.66,0,0,1-2.49-1c-.23-.14-.45-.26-.69-.42s-.49-.38-.73-.59a6,6,0,0,1-.75-.89,4.23,4.23,0,0,1-.56-1.3,5,5,0,0,1-.12-.76,3.8,3.8,0,0,1,0-.6,4.44,4.44,0,0,1,.17-1,6.25,6.25,0,0,1,.68-1.65,11.53,11.53,0,0,1,1.73-2.27,30.06,30.06,0,0,1,3.66-3.13l3.56-2.61a36.37,36.37,0,0,0,3.17-2.57,10.33,10.33,0,0,0,1.14-1.24,2.27,2.27,0,0,0,.4-.73s0,0,0,0,0,0,0-.07a1.83,1.83,0,0,0-.21-.47,8.52,8.52,0,0,0-1-1.37,38,38,0,0,0-2.9-2.94c-2.1-2-4.34-3.93-6.48-6.11A39.07,39.07,0,0,1,1718.9,79a17,17,0,0,1-2.53-4.38A9.15,9.15,0,0,1,1716,69a9.55,9.55,0,0,1,3-4.61,28.74,28.74,0,0,1,8.23-4.5,24.76,24.76,0,0,0,3.67-1.74,2.67,2.67,0,0,0,.49-.4l0,0h0s0,0,0,.25.12.12-.09,0a4.72,4.72,0,0,0-.73-.42,20.32,20.32,0,0,0-3.93-1.21c-1.39-.3-2.81-.53-4.23-.7a43.72,43.72,0,0,0-8.63-.27,23.6,23.6,0,0,0-4.22.62,8.92,8.92,0,0,0-3.63,1.66,2.42,2.42,0,0,0-.84,1.44,2.67,2.67,0,0,0,0,.42l0,.51q0,.51.12,1a23.62,23.62,0,0,0,1.16,4.09c1,2.7,2.33,5.3,3.59,8a37.79,37.79,0,0,1,1.79,4.18,8,8,0,0,1,.48,2.59,3.77,3.77,0,0,1-.15.88,5.16,5.16,0,0,1-.21.49,3,3,0,0,1-.35.46,2.8,2.8,0,0,1-1.82.86l-.39,0-.18,0a1.45,1.45,0,0,0-.35.07,2.88,2.88,0,0,0-.65.29,4.3,4.3,0,0,0-1.17,1.1,12.13,12.13,0,0,0-1.65,3.45,35.48,35.48,0,0,0-1.45,8.18c-.12,1.4-.17,2.81-.17,4.21v1a4.46,4.46,0,0,0,.12.7,5.68,5.68,0,0,0,.58,1.47,13.25,13.25,0,0,0,2.33,2.94,35.56,35.56,0,0,0,3.08,2.72c1.1.87,2.25,1.72,3.43,2.56l1.79,1.33.93.72a8.53,8.53,0,0,1,1.09,1,2.79,2.79,0,0,1,.42.6c0,.09.09.18.12.27a2.54,2.54,0,0,1,.13.44,2,2,0,0,1,0,.63,1.86,1.86,0,0,1-.22.72,2,2,0,0,1-.4.57,2.35,2.35,0,0,1-.42.33,3,3,0,0,1-.56.25,2,2,0,0,1-.38.08l-.28,0a3.63,3.63,0,0,1-.44,0h-.2a.65.65,0,0,0-.24,0,3,3,0,0,0-1.24.55,17.36,17.36,0,0,0-2.85,2.8c-.94,1.08-1.91,2.23-3,3.34a16.08,16.08,0,0,1-3.71,3,7.67,7.67,0,0,1-2.36.86,14.25,14.25,0,0,1-2.24.14c-.31,0-.32.11-.3,0s-.06.17.09.44a7,7,0,0,0,1.13,1.62,22.54,22.54,0,0,0,3.18,2.9,41.51,41.51,0,0,0,3.58,2.48,30.28,30.28,0,0,0,3.87,2A12.07,12.07,0,0,0,1715.08,139.56Z"/><path class="cls-1" d="M1602.15,176.65c0-3.35,12.3-5.3,18.73-5.3s16.49,7.53,10.9,7.53-20.13,3.91-15.09,3.91S1602.15,180,1602.15,176.65Z"/><path class="cls-2" d="M1601.9,176.65a2,2,0,0,1,.46-1.2,4.38,4.38,0,0,1,.86-.86,17.55,17.55,0,0,1,2-1.33,40,40,0,0,1,4.25-2.23,20,20,0,0,1,9.23-1.7,20.76,20.76,0,0,1,2.41.25,12.11,12.11,0,0,1,2.52.72,40.3,40.3,0,0,1,4.31,2.16c1.37.76,2.71,1.54,4,2.44a11,11,0,0,1,2,1.64,3.44,3.44,0,0,1,.46.69,2,2,0,0,1,.22,1.2,1.87,1.87,0,0,1-.32.78,2.08,2.08,0,0,1-.27.32,2.43,2.43,0,0,1-.25.2,2.33,2.33,0,0,1-.51.27,2.18,2.18,0,0,1-.44.16c-.55.17-1.06.19-1.35.27s-.68.14-1,.23l-2.11.55-4.25,1.15c-1.42.4-2.83.85-4.19,1.3-.68.23-1.36.46-2,.69l-.4.16-.2.09a1.91,1.91,0,0,0,.37-.31l.12-.15a2.2,2.2,0,0,0,.23-.34c0-.07.07-.13.1-.2s.05-.13.1-.3a2.44,2.44,0,0,0,.1-.89,2.54,2.54,0,0,0-.25-1,2.64,2.64,0,0,0-.42-.62,2.67,2.67,0,0,0-.43-.37l-.22-.14a1.91,1.91,0,0,0-.59-.21s0,0,0,0a2.89,2.89,0,0,0,.37,0h.15s0,0,0,0h0l-.2,0-.07,0-.19.07a1.85,1.85,0,0,0-.37.19,2.46,2.46,0,0,0-.66.59,2.65,2.65,0,0,0-.45.84,2.56,2.56,0,0,0-.06,1.33,2.77,2.77,0,0,0,.42.94,2.22,2.22,0,0,0,.47.5l.14.1.06.05.2.11.08,0h0l0,0a3,3,0,0,0-.39-.15l-2.08-.7a30.7,30.7,0,0,1-4.26-1.88c-1.4-.73-2.77-1.55-4.13-2.36-.67-.4-1.35-.81-2-1.26a7.45,7.45,0,0,1-.93-.77A1.72,1.72,0,0,1,1601.9,176.65Zm.5,0c0,.56.75,1,1.38,1.31a9.64,9.64,0,0,0,2.12.65,33.9,33.9,0,0,0,4.52.41,43,43,0,0,1,4.54.38c.76.11,1.5.25,2.32.43l.69.18.23.07.13.06.21.08a3.52,3.52,0,0,1,.32.18l.1.07.17.12a3.39,3.39,0,0,1,.52.55,3.12,3.12,0,0,1,.43,1,2.71,2.71,0,0,1-.06,1.37,2.82,2.82,0,0,1-.46.87,3,3,0,0,1-.69.61,3.61,3.61,0,0,1-.44.22l-.23.08-.1,0-.33.07-.18,0-.28,0-.41,0h-.77l-.52,0a3.22,3.22,0,0,1-1.14-.36l-.28-.16a2.94,2.94,0,0,1-.48-.42,2.59,2.59,0,0,1-.46-.68,2.74,2.74,0,0,1-.28-1,2.87,2.87,0,0,1,.11-1,2.07,2.07,0,0,1,.12-.33,2.4,2.4,0,0,1,.11-.23,3.4,3.4,0,0,1,.27-.4l.17-.2a3.64,3.64,0,0,1,.83-.65,8.4,8.4,0,0,1,1.47-.66c.83-.29,1.59-.5,2.37-.69,1.55-.37,3.08-.64,4.63-.88a39.93,39.93,0,0,1,4.67-.5,21.39,21.39,0,0,1,2.4,0l1.24.09c.46,0,.72.11.91.12l.1,0s.06,0,0,0a.08.08,0,0,0,0,.05.27.27,0,0,0-.08.1c0,.08-.09.18-.07.28s0,.14,0,.14,0,0,0,0a1.08,1.08,0,0,0-.1-.31,5.85,5.85,0,0,0-1.26-1.54,13,13,0,0,0-3.7-2.31A12.21,12.21,0,0,0,1623,173a9,9,0,0,0-2,.14l-2.12.36a47.32,47.32,0,0,1-8.77.66,23,23,0,0,0-4.47.29,7.27,7.27,0,0,0-2.06.7A2,2,0,0,0,1602.4,176.65Z"/><path class="cls-1" d="M1584,167.44c0,9.21-27.67-10.88-19.29-10.88s-7.82-21.77-.84-21.77-8.38-7.26-8.38-11.72,16.77-4.65,16.77-10.88-7.55-11.26-7.55-16.75,6.71-11.72,13.42-11.72,14,12.33,19.29,17.58-8.39,5.21-8.39,14.23,5.87,6.42,5.87,12.56S1579,129.21,1579,137.3s6.71,5.49,6.71,10.89S1584,158.23,1584,167.44Z"/><path class="cls-2" d="M1584.23,167.44a2.76,2.76,0,0,1-.65,1.94,2.72,2.72,0,0,1-1.92.74,10.66,10.66,0,0,1-3.82-.76,42.79,42.79,0,0,1-7-3.34,44.33,44.33,0,0,1-6.38-4.49,16.68,16.68,0,0,1-1.47-1.45,8.45,8.45,0,0,1-.68-.9,3.9,3.9,0,0,1-.56-1.32,2.5,2.5,0,0,1,.07-1.13,2.21,2.21,0,0,1,.79-1,3.41,3.41,0,0,1,1.59-.58,4.75,4.75,0,0,0,.82-.11c.1,0,.12-.07.18-.08l.08,0s0,0,0,0,.06-.1.1-.48a5.87,5.87,0,0,0-.18-1.38,25,25,0,0,0-1.1-3.3c-.9-2.27-2-4.56-2.9-7a27,27,0,0,1-1.23-3.95,8.3,8.3,0,0,1-.18-2.6,4.09,4.09,0,0,1,.18-.87,3.21,3.21,0,0,1,.46-1,3.31,3.31,0,0,1,.85-.91,3.05,3.05,0,0,1,1-.54,3.11,3.11,0,0,1,.95-.2l.44,0h.22c.23,0,.44,0,.47,0l0,0a1.15,1.15,0,0,0-.26.14,2,2,0,0,0-.46.51,1.79,1.79,0,0,0-.24.84,1.23,1.23,0,0,0,.07.51c0,.13,0,.1.06.14s0,0,0,0l0-.06a7.86,7.86,0,0,0-1-1.08q-.66-.6-1.38-1.2c-1-.8-1.94-1.66-2.91-2.55a24,24,0,0,1-2.85-3,8.13,8.13,0,0,1-1.21-2.07,4.15,4.15,0,0,1-.31-1.49,3.49,3.49,0,0,1,.09-.89,4.57,4.57,0,0,1,.31-.83,5.21,5.21,0,0,1,2-1.85,13.85,13.85,0,0,1,2-.88c2.54-.89,5-1.44,7.38-2.19a20.16,20.16,0,0,0,3.37-1.38,4.84,4.84,0,0,0,2.33-2.16,3.09,3.09,0,0,0,.15-1.52,3.17,3.17,0,0,0-.11-.86,5.23,5.23,0,0,0-.2-.85,13.52,13.52,0,0,0-1.54-3.27c-1.29-2.11-2.9-4.08-4.26-6.36a11.59,11.59,0,0,1-1.47-3.85,8.56,8.56,0,0,1,.47-4.24,15.5,15.5,0,0,1,4.86-6.59,17.77,17.77,0,0,1,3.53-2.21,15.53,15.53,0,0,1,4.09-1.24l1.09-.11a7.09,7.09,0,0,1,1.2,0l.62,0a5.45,5.45,0,0,1,.58.14c.37.11.76.2,1.13.33a16.2,16.2,0,0,1,3.76,2.16,40.21,40.21,0,0,1,5.8,5.53c1.74,1.93,3.35,3.93,5,5.83.81,1,1.62,1.88,2.44,2.73l.62.63.38.39c.15.17.29.3.44.49l.44.58c.14.24.28.48.41.73a6.62,6.62,0,0,1,.32.95,3.81,3.81,0,0,1,.1,1.13,4.33,4.33,0,0,1-.64,2.09,6.42,6.42,0,0,1-1,1.24,14.4,14.4,0,0,1-1.84,1.45c-1.13.77-2.14,1.4-3,2.08a9.3,9.3,0,0,0-2,2.1,5,5,0,0,0-.83,2.31c0,.23,0,.41,0,.67l0,.81a3.8,3.8,0,0,0,.07.77c0,.24.06.5.1.73a4.74,4.74,0,0,0,1,2.18,10.67,10.67,0,0,0,1.1,1l.78.68a9.11,9.11,0,0,1,.91.94,7.39,7.39,0,0,1,1.42,2.6c.11.45.2.91.27,1.36l.07,1.26a5.29,5.29,0,0,1-1.2,3.41,6.21,6.21,0,0,1-2.57,1.76,17.28,17.28,0,0,1-4.33.92c-1.31.14-2.56.22-3.72.38a12.54,12.54,0,0,0-3.13.67,3.33,3.33,0,0,0-1,.57,2.42,2.42,0,0,0-.56.76,3.53,3.53,0,0,0-.19,1.3c0,.27,0,.56,0,.82l.08.76a4.29,4.29,0,0,0,1.22,2.52,10.47,10.47,0,0,0,1.33,1,14,14,0,0,1,1.67,1.29,4.74,4.74,0,0,1,1.3,2,6.3,6.3,0,0,1,.19,2.24,35.26,35.26,0,0,1-.48,3.87c-.46,2.53-1,5-1.31,7.51A59.92,59.92,0,0,0,1584.23,167.44Zm-.5,0q0-3.83.29-7.64c.19-2.55.53-5.09.69-7.6a35.82,35.82,0,0,0,0-3.73,4.39,4.39,0,0,0-.32-1.52,2.56,2.56,0,0,0-.88-1c-.78-.58-2.08-1-3.31-1.92a7.28,7.28,0,0,1-2.65-3.89l-.26-1.11c-.07-.36-.1-.72-.14-1.08a7.29,7.29,0,0,1,.09-2.48,5.91,5.91,0,0,1,1.3-2.52,7.38,7.38,0,0,1,2.1-1.6c2.91-1.44,5.59-1.6,8-2.05a14.3,14.3,0,0,0,3.09-.77,1.23,1.23,0,0,0,.54-.35s0,.12,0-.12,0-.43,0-.64-.09-.34-.12-.51a2.21,2.21,0,0,0-.44-.7c-.35-.48-1.61-1.25-2.78-2.53a9.93,9.93,0,0,1-2.25-4.62c-.08-.39-.12-.76-.18-1.15a7.39,7.39,0,0,1-.1-1.12l-.05-1.1c0-.38,0-.82.05-1.23a10.37,10.37,0,0,1,1.77-4.78,13.85,13.85,0,0,1,3.3-3.28c1.16-.84,2.32-1.53,3.31-2.16a10.15,10.15,0,0,0,1.19-.86c.14-.12.19-.2.22-.21s-.05.12-.07.29,0,.14,0,.19,0,0,0,0a.22.22,0,0,1-.05-.11,1.18,1.18,0,0,1-.13-.18c0-.07-.13-.15-.19-.23l-.1-.12-.17-.18-.7-.76c-.9-1-1.72-2-2.53-3-1.59-2-3.12-4-4.68-5.95a42.14,42.14,0,0,0-4.93-5.26A12.73,12.73,0,0,0,1580,86a5.85,5.85,0,0,0-2.84-.53,12.55,12.55,0,0,0-3.26.68,15.61,15.61,0,0,0-3.07,1.57,12.59,12.59,0,0,0-4.52,5.17,6.46,6.46,0,0,0-.6,3.23,9.68,9.68,0,0,0,1.11,3.27c1.11,2.17,2.76,4.14,4.07,6.4a16.82,16.82,0,0,1,1.69,3.61,5.52,5.52,0,0,1,.25,1,4.43,4.43,0,0,1,.16,1,4.69,4.69,0,0,1-.19,2.23,6.77,6.77,0,0,1-2.93,3.15,24.49,24.49,0,0,1-3.58,1.73c-2.39,1-4.85,1.77-7,2.81a13.88,13.88,0,0,0-1.45.84,2.16,2.16,0,0,0-.73.78.25.25,0,0,0,0,.13,1.84,1.84,0,0,0,.15.35,5.19,5.19,0,0,0,.85,1.1,48.77,48.77,0,0,0,5.64,4.56c.51.39,1,.79,1.56,1.22a13.26,13.26,0,0,1,1.67,1.59l.24.32a3,3,0,0,1,.26.41,3,3,0,0,1,.25.58,2.82,2.82,0,0,1,.15,1,2.54,2.54,0,0,1-.39,1.29,2.63,2.63,0,0,1-.78.83,3,3,0,0,1-.69.37l-.49.15a6.27,6.27,0,0,1-1.41.17l-.26,0h0s-.08,0,0,0,.08-.06.21-.11.15-.18.21-.22,0-.16.07-.12,0,0,0,0a4.57,4.57,0,0,0,.12,1.18,28.93,28.93,0,0,0,1,3.33c.81,2.32,1.75,4.71,2.52,7.24a23,23,0,0,1,.89,4,8.23,8.23,0,0,1,0,2.42c0,.24-.11.47-.18.71a5.36,5.36,0,0,1-.34.74,3.43,3.43,0,0,1-1.24,1.24l-.38.21-.37.12a3.52,3.52,0,0,1-.74.16,8.4,8.4,0,0,1-1.08,0c-.18,0-.33,0-.21,0a.66.66,0,0,0,.19-.33c0-.12,0-.2,0-.18a.94.94,0,0,0,.12.44,5.51,5.51,0,0,0,.39.68A13.17,13.17,0,0,0,1566,160a35.22,35.22,0,0,0,5.55,5,30.92,30.92,0,0,0,6.48,3.78,9.67,9.67,0,0,0,3.58.85,2.16,2.16,0,0,0,1.56-.55A2.28,2.28,0,0,0,1583.73,167.44Z"/><path class="cls-1" d="M1547.73,170.33c-6.15-6.14-10.06-14.89-22-14.89s-22.36.37-22.36,6.7,6,11.16,14.91,11.16S1553.88,176.46,1547.73,170.33Z"/><path class="cls-2" d="M1547.56,170.5c-1.58-1.59-3.1-3.23-4.73-4.76a39.06,39.06,0,0,0-5.13-4.1,24.15,24.15,0,0,0-11.09-4.07c-1-.16-2.15-.23-3.23-.35l-3.31-.34a39.53,39.53,0,0,0-6.61-.18,16.9,16.9,0,0,0-6.21,1.49,5.05,5.05,0,0,0-2.14,1.83,3.29,3.29,0,0,0-.34,2.46,8.29,8.29,0,0,0,2.6,4.78,12.32,12.32,0,0,0,4.83,2.69,19.17,19.17,0,0,0,5.79.73c2.25-.07,4.56,0,6.77.19s4.43.37,6.63.61,4.38.61,6.57,1a43,43,0,0,0,6.56.73,8,8,0,0,0,3.12-.47c.46-.21.77-.52.7-1A2.73,2.73,0,0,0,1547.56,170.5Zm.35-.35a3.25,3.25,0,0,1,1,1.51,1.32,1.32,0,0,1-.18,1,2.39,2.39,0,0,1-.72.67,12.36,12.36,0,0,1-3.31,1.17c-2.24.53-4.5.93-6.76,1.25a53.53,53.53,0,0,1-6.77.54c-2.24,0-4.47,0-6.69-.1l-6.56-.31a21.87,21.87,0,0,1-7.3-1.5,14.66,14.66,0,0,1-6.25-4.49,11,11,0,0,1-2.32-7.32,5.89,5.89,0,0,1,2.87-5.11,8.85,8.85,0,0,1,1.65-.84,32.74,32.74,0,0,1,6.72-1.54l6.72-1,3.36-.44c1.14-.11,2.17-.27,3.43-.28a16.28,16.28,0,0,1,7.26,1.4,16.67,16.67,0,0,1,5.78,4.48,56.7,56.7,0,0,1,4,5.64A32.23,32.23,0,0,0,1547.91,170.15Z"/><path class="cls-1" d="M1491.45,148.74c-9.5,0-10.62-5.58-10.62-10s11.74.56,11.74-8.37,1.6-29.38-5.67-29.38-12.22-9.69-6.63-9.69,9.51-3.35,9.51-9.49-5.6-7.82-14-7.82,5.59-12.28,17.33-12.28,23.48,3.35,23.48,8.93-18.45,3.35-18.45,11.73,3,9.62,7.48,9.62-5.59,26.1-5.59,31.12,3.14,11.16,3.14,16.19S1501,148.74,1491.45,148.74Z"/><path class="cls-2" d="M1491.45,149a17.3,17.3,0,0,1-4.29-.46,9.15,9.15,0,0,1-3.92-1.91,7.92,7.92,0,0,1-2.38-3.73,12.64,12.64,0,0,1-.47-2.16,19.9,19.9,0,0,1-.19-2.23,2.33,2.33,0,0,1,.48-1.37,2.87,2.87,0,0,1,1.1-.84,9.32,9.32,0,0,1,2.25-.63,31.37,31.37,0,0,0,4-.84,4,4,0,0,0,2.58-1.93,4.15,4.15,0,0,0,.38-1.53,6.44,6.44,0,0,0,0-.88l0-1-.27-8.52c-.1-2.81-.23-5.6-.47-8.32a27,27,0,0,0-1.52-7.58,5.77,5.77,0,0,0-.74-1.28,1.73,1.73,0,0,0-.7-.56,1.46,1.46,0,0,0-.42-.09,11.91,11.91,0,0,1-1.34-.11,10.8,10.8,0,0,1-2.53-.72,12.11,12.11,0,0,1-4.1-2.93,10.15,10.15,0,0,1-2.53-4.45,4.66,4.66,0,0,1,.27-3.25,3.28,3.28,0,0,1,1.41-1.4,4.13,4.13,0,0,1,1.6-.43c.24,0,.52,0,.69,0h.47a7.32,7.32,0,0,0,.94,0,9.45,9.45,0,0,0,1.84-.32,6.94,6.94,0,0,0,4.9-5.06,10.74,10.74,0,0,0,.31-3.86,5,5,0,0,0-1.65-3.21,8.82,8.82,0,0,0-3.45-1.76,21,21,0,0,0-4.06-.67c-1.4-.11-2.74-.12-4.23-.13a6.11,6.11,0,0,1-1.23-.16,2.58,2.58,0,0,1-1.33-.78,2.09,2.09,0,0,1-.44-1.67,3.87,3.87,0,0,1,.46-1.28,13.87,13.87,0,0,1,3-3.46,30.15,30.15,0,0,1,3.55-2.63,32.45,32.45,0,0,1,8-3.72,23.42,23.42,0,0,1,4.45-.91c.39,0,.77-.06,1.16-.08l1.1,0c.73,0,1.46,0,2.19,0a54.17,54.17,0,0,1,8.77.8,36.18,36.18,0,0,1,4.38,1,23.41,23.41,0,0,1,4.33,1.78,10.94,10.94,0,0,1,4,3.48,6.51,6.51,0,0,1,1.06,3.07l0,.43c0,.17,0,.34,0,.52a4.79,4.79,0,0,1-.24,1.06,5,5,0,0,1-1.07,1.73,8.18,8.18,0,0,1-2.49,1.71,19.84,19.84,0,0,1-2.28.87c-1.47.47-2.87.83-4.22,1.19s-2.66.72-3.86,1.16a10.12,10.12,0,0,0-3,1.56,2.28,2.28,0,0,0-1,1.74c0,.11,0,.54,0,.84s0,.65,0,1a16.83,16.83,0,0,0,.21,1.82,5.42,5.42,0,0,0,1,2.57,1.94,1.94,0,0,0,.76.54,4.79,4.79,0,0,0,1.31.33c.27,0,.55.06.85.08h.58l.32,0a3.46,3.46,0,0,1,2.6,1.47,4.28,4.28,0,0,1,.6,1.23,6.84,6.84,0,0,1,.27,1.71,21.83,21.83,0,0,1-.53,4.83,84.75,84.75,0,0,1-2.23,8.44c-.82,2.75-1.73,5.44-2.63,8.12l-1.31,4a27.29,27.29,0,0,0-1,3.8,16.66,16.66,0,0,0,.22,3.85c.21,1.34.51,2.72.82,4.11s.61,2.79.84,4.24a19.08,19.08,0,0,1,.3,4.42,12,12,0,0,1-1,4.34,7.62,7.62,0,0,1-3,3.29A15.85,15.85,0,0,1,1491.45,149Zm0-.5a21.54,21.54,0,0,0,4.18-.41,10.62,10.62,0,0,0,3.82-1.51,6.81,6.81,0,0,0,2.47-3.08,9.5,9.5,0,0,0,.59-4,27.77,27.77,0,0,0-2-8c-.46-1.35-.94-2.71-1.33-4.14a18.49,18.49,0,0,1-.78-4.59,28.61,28.61,0,0,1,.61-4.56c.27-1.43.6-2.83.93-4.22.65-2.78,1.34-5.53,2-8.26s1.33-5.46,1.81-8.1a17.32,17.32,0,0,0,.35-3.63,1.24,1.24,0,0,0-.06-.4.78.78,0,0,0,.15.28,1.7,1.7,0,0,0,.78.6c.36.14.77.11.39.11h-.61c-.41,0-.83,0-1.27-.08a9.22,9.22,0,0,1-2.81-.69,7.26,7.26,0,0,1-2.66-1.92,10.47,10.47,0,0,1-2.25-5.19,20.43,20.43,0,0,1-.27-2.41c0-.39,0-.78,0-1.17s0-.69,0-1.28a7.3,7.3,0,0,1,.93-3.17,8.27,8.27,0,0,1,2.06-2.34,15.21,15.21,0,0,1,4.56-2.31c1.48-.5,2.93-.86,4.33-1.2s2.76-.63,4-1a13.76,13.76,0,0,0,1.72-.59,3.8,3.8,0,0,0,1-.6c.08-.07.08-.08.08-.06s0,0,0,0h0v-.1a2,2,0,0,0-.29-.92,6.88,6.88,0,0,0-2.33-2.06,27.73,27.73,0,0,0-7.34-2.72,60.52,60.52,0,0,0-8.12-1.3c-.68-.06-1.37-.11-2.06-.15l-1-.05h-1a21.23,21.23,0,0,0-3.93.49,29.24,29.24,0,0,0-7.61,2.91,27,27,0,0,0-3.45,2.21,10.86,10.86,0,0,0-2.71,2.8,2.37,2.37,0,0,0-.3.7c0,.2,0,.27,0,.34a2.1,2.1,0,0,0,1.35.41c1.35,0,2.85,0,4.28.19a25.26,25.26,0,0,1,4.34.74,10.28,10.28,0,0,1,4.09,2,7,7,0,0,1,2.31,4.13,10,10,0,0,1,.14,2.31,11.81,11.81,0,0,1-.26,2.28,9.36,9.36,0,0,1-6,7.07,12.55,12.55,0,0,1-2.31.63,11.53,11.53,0,0,1-1.18.15l-.59,0-.38,0a1.1,1.1,0,0,0-.42.16c-.06.06,0,.07,0,.11a2,2,0,0,0,.14.92,7.39,7.39,0,0,0,1.93,2.71,8.29,8.29,0,0,0,2.93,1.76,6.34,6.34,0,0,0,1.58.36,5.22,5.22,0,0,0,.79,0,5.71,5.71,0,0,1,4.44,2,9,9,0,0,1,1.47,2.34,20.48,20.48,0,0,1,1.35,4.59,38.45,38.45,0,0,1,.54,4.46,129.12,129.12,0,0,1-.53,17.22l-.08,1.08a9.16,9.16,0,0,1-.16,1.24,6.86,6.86,0,0,1-1,2.48,5.73,5.73,0,0,1-2,1.83,7.74,7.74,0,0,1-2.33.82,33.08,33.08,0,0,1-4.37.41,8.18,8.18,0,0,0-1.9.32c-.55.2-.81.44-.88,1-.2,2.65.23,5.64,2.23,7.53a8.17,8.17,0,0,0,3.6,1.89A16.47,16.47,0,0,0,1491.45,148.49Z"/><path class="cls-3" d="M1414.86,94.05c0-2.52,11.46-7.26,19.57-7.26s15.65,5.86,15.65,9.49-14,.84-14,5.58,6.15,14.51,1.12,14.51-12.86,5-12.86,0,9.51-14.51,3.92-14.51S1414.86,96.56,1414.86,94.05Z"/><path class="cls-3" d="M1441.42,134c7.54,0,23.48,7,23.48,12.28s-4.48,33.49-9,33.49-10.62-5.3-10.62-10.32S1433.87,134,1441.42,134Z"/><path class="cls-3" d="M1400.32,157.12c5.87,0,19.85,4.46,23.76,4.46s5.59-23.44-1.95-23.44-13.14,13.67-19.29,13.67S1394.45,157.12,1400.32,157.12Z"/><path class="cls-3" d="M1333.23,166.05c0-5.4,11.56-7.26,22.37-7.26s17.51,6.14,24,6.14-.56,2.6-.56,5,12.86-2,12.86,1.68-12.12,10.6-17.89,10.6-14.54-.56-14.54-4.46,3.35-7.82-3.91-7.82S1333.23,171.44,1333.23,166.05Z"/><path class="cls-3" d="M1290.94,180.37c-5.94,0-15-6.32-15-8.74s12.25-3.72,12.25-8.56-7.05-10.42-12.06-10.42,4.08-11.16,4.08-16.37,7,1.12,7-4.65-9.46-4.1-9.46-9.12,9.09-10.6,13.91-10.6,32.29,14,19.3,14-18.18,13-18.18,16.93,8.16,6.51,8.16,10.79-7.61,7.82-7.61,12.65,6.87,2.23,6.87,6.51S1296.88,180.37,1290.94,180.37Z"/><path class="cls-3" d="M1153.9,134.79c0-2.79,9.47-10.88,17.82-10.88s20,7,20,10.6-9.47,9.21-13.64,9.21-4.73,5.58-4.73,10.33,8.63,4.18,8.63,8.65-11.42,5.3-11.42,7.53,13.92,4.19,13.92,6.14-6.12,5-14.75,5-5.57-10.32-5.57-13.95-8.35-4.18-10-5.86,6.68-7.25,9.74-7.25,3.06-9.21-.28-9.21S1153.9,137.58,1153.9,134.79Z"/><path class="cls-3" d="M1049.8,146.79c6.12,0,16.42,10.05,16.42,13.12s-6.68,3.35-6.68,8.93,12.67.69,7.8,5.58-5,10.32-12.25,10.32-7-14.79-14.48-14.79,9.47-3.07,9.47-8.93-11.69-5.58-11.69-8.37S1043.68,146.79,1049.8,146.79Z"/><path class="cls-3" d="M973.81,173.58c0-9.21,5.29-7.81,11.14-7.81s11.13,4.74,11.13,8.65-4.45,9.21-10.58,9.21S973.81,182.79,973.81,173.58Z"/><path class="cls-3" d="M936.79,151.26c4.73,0,13.64,5,13.64,8.37s-35.63,9.77-20.88,9.77,11.14,3.9,11.14,7-7.52,9.49-12,9.49-5.29-4.19-5.29-8.93-18.37-3.07-18.37-7.26,21.43-5.86,21.43-10.32S932.06,151.26,936.79,151.26Z"/><path class="cls-3" d="M838.26,159.91c6.12,0,34.79-8.65,41.75-8.65s.83,7.25.83,10.6-12.52,7-17,7-3.06-5.31-10.29-5.31S848.28,168,844.1,168,832.13,159.91,838.26,159.91Z"/><path class="cls-3" d="M855,114.14c-2.23,0-9.74,8.37-9.74,12s8.62,6.7,14.47,6.7,12.25-3.35,12.25-7.54.28-11.16-2.51-11.16-3.06,2.51-7.51,2.51S857.18,114.14,855,114.14Z"/><path class="cls-3" d="M775.07,117.77c-3.62,0-12.25,8.65-12.25,12s9.47,6.42,14.76,6.42,12.52-5.86,12.52-8.38-7-4.18-12-4.18S778.69,117.77,775.07,117.77Z"/><path class="cls-3" d="M705.76,161.51c0-2.14,19.67-2,31-2s31.4,1.07,31.4,3.29-7.94,3.37-7.94,6.24,6.21,3.7,6.21,6.24-10.09,5.26-14.83,5.26-12.77-3-12.77-5.92S741,174,741,169.42s-4.82-1.3-11.12-1.3-10,1.27-13.45,1.27S705.76,163.64,705.76,161.51Z"/><path class="cls-3" d="M575.78,164.93c-.28-2.79,24.49-7.26,29.22-7.26s.84,11.45.84,14.52,17.53,2.23,17.53,5.86-14.19,10-21.15,10-2.78-10.88-2.78-16.46S576.05,167.72,575.78,164.93Z"/><path class="cls-3" d="M476.41,165.21c0-3.07,8.35-7.26,18.64-7.26s21.72-1.11,21.72,2.79-9.75,8.38-16.15,8.38S476.41,168.28,476.41,165.21Z"/><path class="cls-3" d="M386.78,174.14c0-2.23,5.29-4.47,13.92-4.47s17.67,3.49,16.42,4.75S386.78,176.37,386.78,174.14Z"/><path class="cls-3" d="M246.77,160.46c0-3.34,15.59-7.81,23.94-7.81s5.84,6.7,12.24,6.7,18.65-.56,18.65,3.07-19.48,8.37-30.34,8.37S246.77,163.81,246.77,160.46Z"/><path class="cls-3" d="M40.79,110.23c8.07,0,65.14,4.19,65.14,9.21s-37.58,8.09-37.58,12,34,.28,34,6.14-32.57,5-32.57,10.88-2.5,15.35-2.5,20.66,26.16,1.11,26.16,5.3-38.13,4.46-42.87,4.46,10.58-14.23,10.58-27.07-13.36-2.23-20.6-2.23S32.72,110.23,40.79,110.23Z"/><path class="cls-3" d="M66.4,98.23c0-3.63,10.3-4.46,19.48-4.46s19.77,2.23,19.77,5.86-16.43,10-21.71,10S66.4,101.86,66.4,98.23Z"/><path class="cls-3" d="M24.65,91.26c0-3.91,6.4-5.31,11.69-5.31s14.19-.83,17.53,2.51-8.07,2.8-13.36,2.8-1.67,8.37-6.68,8.37S24.65,95.16,24.65,91.26Z"/></g></g></svg>